<svg width="187" height="36" viewBox="0 0 187 36" fill="none" xmlns="http://www.w3.org/2000/svg">
<g clip-path="url(#clip0_315_1193)">
<path d="M132.405 29.1812H33.1467V31.4103H132.405V29.1812Z" fill="url(#paint0_linear_315_1193)"/>
<path d="M138.694 34.8805L140.585 25.1512H136.856L137.121 23.7686H146.153L145.871 25.1512H142.145L140.224 34.8872L138.694 34.8805Z" fill="#231F20"/>
<path d="M151.581 34.9783C150.854 34.997 150.132 34.841 149.475 34.5231C148.906 34.2446 148.429 33.8026 148.104 33.2517C147.775 32.6653 147.614 31.9974 147.637 31.3227C147.62 30.4361 147.829 29.5603 148.243 28.7799C148.637 28.0452 149.221 27.4338 149.931 27.0113C150.641 26.5889 151.451 26.3714 152.273 26.3822C152.949 26.3649 153.619 26.5154 154.224 26.8206C154.762 27.0996 155.209 27.532 155.509 28.065C155.831 28.6638 155.989 29.3389 155.97 30.021C155.969 30.2147 155.96 30.4083 155.94 30.601C155.916 30.7966 155.889 30.9787 155.86 31.1473H148.71L148.899 30.0378H155.152L154.545 30.4189C154.646 29.9157 154.603 29.3935 154.42 28.9148C154.251 28.5171 153.957 28.1874 153.585 27.9773C153.166 27.7471 152.696 27.6309 152.22 27.6401C151.637 27.6266 151.063 27.7834 150.564 28.092C150.09 28.3975 149.709 28.832 149.465 29.3465C149.194 29.9359 149.06 30.581 149.074 31.2317C149.057 31.5575 149.107 31.8835 149.221 32.1884C149.335 32.4934 149.511 32.7706 149.736 33.0021C150.167 33.4203 150.829 33.6294 151.724 33.6294C152.219 33.6339 152.711 33.5447 153.174 33.3664C153.587 33.2113 153.963 32.9714 154.281 32.6615L154.92 33.7576C154.499 34.1659 153.993 34.4725 153.439 34.6546C152.842 34.8671 152.214 34.9766 151.581 34.9783Z" fill="#231F20"/>
<path d="M163.246 34.9782C162.527 34.9963 161.814 34.8402 161.166 34.5229C160.6 34.2431 160.125 33.8013 159.802 33.2515C159.469 32.6722 159.302 32.0101 159.318 31.3394C159.302 30.4485 159.516 29.569 159.941 28.7899C160.348 28.0513 160.948 27.4411 161.673 27.0261C162.439 26.5893 163.305 26.367 164.183 26.382C164.896 26.3626 165.602 26.5175 166.244 26.8339C166.818 27.1424 167.286 27.6226 167.585 28.2098L166.32 28.9248C166.131 28.531 165.822 28.2103 165.439 28.0109C165.013 27.8046 164.545 27.704 164.074 27.7175C163.494 27.7037 162.922 27.8565 162.423 28.1582C161.924 28.46 161.518 28.8985 161.252 29.4239C160.962 29.9955 160.816 30.6319 160.828 31.2753C160.814 31.5952 160.866 31.9146 160.98 32.2131C161.094 32.5116 161.268 32.7825 161.491 33.0087C161.995 33.4577 162.654 33.6856 163.322 33.6427C163.799 33.6457 164.27 33.5421 164.703 33.3392C165.132 33.1412 165.505 32.8361 165.786 32.4523L166.879 33.2448C166.489 33.7979 165.963 34.2365 165.353 34.5161C164.693 34.828 163.973 34.9858 163.246 34.9782Z" fill="#231F20"/>
<path d="M176.272 26.3819C176.913 26.3602 177.548 26.5176 178.107 26.8372C178.59 27.1288 178.952 27.589 179.127 28.1322C179.321 28.7898 179.34 29.4878 179.184 30.1556L178.263 34.8769H176.766L177.687 30.1556C177.841 29.3934 177.768 28.801 177.468 28.3783C177.167 27.9534 176.623 27.741 175.845 27.741C175.125 27.7196 174.421 27.9586 173.858 28.4154C173.28 28.9406 172.904 29.6578 172.798 30.4389L171.924 34.887H170.427L172.745 23.1006H174.242L173.103 28.8842L172.772 28.23C173.132 27.6286 173.654 27.1443 174.275 26.8338C174.9 26.5344 175.582 26.38 176.272 26.3819Z" fill="#231F20"/>
<path d="M31.504 0H7.20699C4.978 0 4.097 1.76037 3.51077 4.13789L2.63971 7.66539H27.2315L31.504 0Z" fill="#7BC46B"/>
<path d="M0.414032 16.6424C-0.172196 19.003 -0.447093 20.9253 1.77858 20.7803L4.71635 20.5881L1.24535 35.9998L14.5266 14.0794L7.90251 14.302L9.62476 9.69531H2.13297L0.414032 16.6424Z" fill="#7BC46B"/>
<path d="M22.747 14.0898H16.8714L13.0759 20.3456L19.0011 20.3557L22.747 14.0898Z" fill="#7BC46B"/>
<path d="M57.4735 20.622C54.9851 20.35 53.3423 19.2517 52.5452 17.3272C51.7481 15.4027 51.9546 13.0173 53.1646 10.171C55.2379 6.65479 58.4561 5.01582 62.8191 5.25414H69.7313L69.5094 6.05339L68.2972 10.9399L65.8695 20.6793H61.0405L57.4735 20.622ZM63.4848 10.9399L63.869 9.30097H61.5506C60.4586 9.26834 59.3898 9.62631 58.53 10.3127C57.7906 10.925 57.2456 11.7464 56.9634 12.6733C56.4401 15.0947 57.2637 16.2908 59.4342 16.2615H62.1302L63.4848 10.9399Z" fill="#231F20"/>
<path d="M68.3634 20.6791L69.208 16.4873H77.0078C77.8391 16.5581 78.3326 16.2984 78.5048 15.7049C78.5247 15.0507 78.0455 14.7539 77.0674 14.8146H74.8782C73.359 14.7854 72.1965 14.2874 71.3906 13.3206C70.5847 12.3539 70.3363 11.0229 70.6454 9.32775C71.5242 6.38705 73.7388 5.02911 77.2893 5.25393H85.4932L84.6188 9.26705H76.5507C75.938 9.2367 75.5869 9.46264 75.5008 9.94152C75.4657 10.092 75.4861 10.2504 75.5581 10.3866C75.6302 10.5227 75.7489 10.6272 75.8916 10.6801C76.2895 10.8129 76.7105 10.8589 77.127 10.815L79.0977 10.7543C80.9414 10.815 82.1624 11.3455 82.7608 12.346C83.3591 13.3465 83.5192 14.6808 83.241 16.349C82.6294 19.3504 80.6013 20.7938 77.1568 20.6791H68.3634Z" fill="#231F20"/>
<path d="M88.5204 0.475586H93.3924C93.3939 0.485641 93.3939 0.495882 93.3924 0.505937C93.3829 0.523106 93.3752 0.541179 93.3692 0.559895C93.3569 0.591678 93.3469 0.624372 93.3394 0.657694C93.3394 0.698162 93.3162 0.745375 93.303 0.806078L93.2433 1.02528C93.2169 1.11296 93.1937 1.21076 93.1705 1.31868L93.0811 1.68964C93.0446 1.82453 93.0049 1.97966 92.9618 2.1584C92.9188 2.33713 92.8691 2.52598 92.8128 2.73844C92.7565 2.9509 92.7035 3.18022 92.6439 3.42978C92.5843 3.67933 92.518 3.95587 92.4451 4.25263C92.3723 4.5494 92.2895 4.86978 92.2001 5.21039H95.6943L94.7305 9.68889H91.1866C91.1881 9.69894 91.1881 9.70918 91.1866 9.71924C91.1784 9.73862 91.1728 9.75904 91.17 9.77994C91.1641 9.81741 91.1564 9.85456 91.1468 9.89123C91.1468 9.93844 91.127 9.99577 91.1104 10.0666C91.0938 10.1374 91.0806 10.2183 91.0607 10.3128C91.0409 10.4072 91.011 10.5219 90.9779 10.65C90.9448 10.7782 90.9051 10.9299 90.8686 11.0952C90.8322 11.2604 90.7825 11.4493 90.7328 11.6617C90.6832 11.8742 90.6302 12.1069 90.5706 12.3632L90.3718 13.213C90.2957 13.5266 90.2162 13.8605 90.1267 14.2247C90.0373 14.5889 89.938 14.9835 89.832 15.4152C89.7979 15.6623 89.861 15.9132 90.0075 16.1132C90.0818 16.2119 90.1784 16.2907 90.2892 16.343C90.3999 16.3953 90.5215 16.4194 90.6434 16.4134H93.1771L92.1934 20.6794H88.8616C88.2478 20.7005 87.6384 20.5672 87.0873 20.2914C86.5361 20.0155 86.0603 19.6055 85.7019 19.0978C85.3199 18.578 85.0562 17.9782 84.9296 17.342C84.803 16.7057 84.8168 16.0487 84.9699 15.4185L88.5204 0.475586Z" fill="#231F20"/>
<path d="M102.742 0.47553H112.529C113.174 0.456018 113.814 0.587233 114.401 0.859087C114.987 1.13094 115.505 1.53619 115.914 2.04368C116.332 2.53229 116.629 3.11599 116.779 3.74569C116.93 4.37539 116.93 5.03267 116.779 5.66223C116.445 7.16855 116.06 8.88733 115.623 10.8186C115.399 11.7754 114.859 12.6246 114.093 13.2231C113.322 13.848 112.362 14.1817 111.377 14.1673H101.01V14.1201C101.007 14.1114 101.007 14.1019 101.01 14.0931C100.996 14.1065 100.988 14.1245 100.987 14.1437L100.964 14.2415C100.964 14.282 100.944 14.336 100.927 14.4C100.911 14.4641 100.894 14.545 100.874 14.6327C100.854 14.7204 100.831 14.8317 100.801 14.97C100.772 15.1082 100.738 15.2364 100.699 15.3915C100.659 15.5466 100.616 15.7287 100.573 15.9176C100.53 16.1064 100.477 16.3324 100.424 16.5921C100.371 16.8517 100.311 17.0979 100.245 17.3812C100.179 17.6645 100.109 17.9848 100.033 18.3255C99.9568 18.6661 99.8674 19.037 99.7813 19.435C99.6952 19.8329 99.5925 20.2545 99.4832 20.7063H94.5118C94.5118 20.7063 94.5118 20.6794 94.5118 20.6558L94.5416 20.5411C94.5582 20.4905 94.5781 20.4163 94.6013 20.3152L94.6907 19.9375L94.8165 19.381C94.8662 19.1584 94.9258 18.8988 95.002 18.5952C95.0782 18.2917 95.1577 17.9478 95.2537 17.5566C95.3498 17.1654 95.4491 16.7202 95.5617 16.2076C95.6744 15.695 95.8068 15.1554 95.9559 14.5417C96.1049 13.9279 96.2639 13.2534 96.4361 12.5182C96.6083 11.7831 96.8004 10.967 97.0058 10.0834C97.2111 9.19984 97.4397 8.23534 97.6881 7.19328C97.9365 6.15122 98.2014 5.03497 98.4863 3.84115C99.2723 1.5974 100.691 0.47553 102.742 0.47553ZM102.106 9.46288H110.469C110.6 9.47206 110.731 9.43525 110.839 9.35857C110.946 9.28189 111.025 9.16994 111.062 9.04134L111.847 5.81398C111.864 5.72601 111.861 5.63529 111.838 5.54877C111.815 5.46225 111.773 5.38224 111.714 5.31487C111.658 5.24716 111.587 5.19323 111.508 5.15704C111.428 5.12085 111.341 5.10334 111.254 5.10579H103.557C103.427 5.10886 103.302 5.15639 103.203 5.24068C103.085 5.32975 103.001 5.45707 102.964 5.60152L102.106 9.46288Z" fill="#231F20"/>
<path d="M118.186 18.5107C117.005 17.3326 116.573 15.488 116.891 12.9767C117.925 8.5926 121.132 6.01836 126.513 5.25396C129.582 5.13255 131.782 5.84637 133.113 7.39541C134.99 10.0191 134.838 13.0745 132.656 16.5615C130.289 19.6888 126.933 21.0378 122.588 20.6083C120.931 20.4337 119.38 19.6946 118.186 18.5107ZM128.924 9.52337C128.348 9.00143 127.608 8.70706 126.837 8.69377C126.243 8.64672 125.646 8.72256 125.081 8.91671C124.516 9.11086 123.996 9.41931 123.552 9.82351C122.634 10.6513 122.026 11.7776 121.833 13.0104C121.449 15.5846 122.609 16.9257 125.314 17.0336C125.925 17.0184 126.527 16.8707 127.078 16.6003C127.629 16.3299 128.117 15.9431 128.51 15.4655C129.366 14.4718 129.801 13.1756 129.815 11.5771C129.812 11.191 129.731 10.8096 129.578 10.4564C129.425 10.1032 129.202 9.78569 128.924 9.52337Z" fill="#231F20"/>
<path d="M137.803 5.22394H142.718L140.261 15.4321C140.227 15.6782 140.29 15.9279 140.436 16.1268C140.51 16.2265 140.606 16.3063 140.717 16.3592C140.828 16.4121 140.95 16.4365 141.072 16.4303H143.205C143.214 16.0893 143.259 15.7501 143.338 15.4186L145.795 5.21045H150.71L148.253 15.4186C148.231 15.5402 148.235 15.6652 148.264 15.7851C148.294 15.905 148.349 16.0169 148.425 16.1133C148.5 16.2129 148.598 16.2925 148.71 16.3453C148.821 16.3982 148.944 16.4227 149.067 16.4168H151.171L153.777 5.21045H158.692L155.092 20.666H150.637H147.276C145.361 20.666 144.059 19.6712 143.367 17.6815L142.689 20.6525H141.013H139.31C138.689 20.6754 138.072 20.5439 137.513 20.2695C136.953 19.9951 136.467 19.586 136.098 19.0776C135.708 18.5629 135.44 17.9646 135.312 17.3282C135.184 16.6919 135.2 16.0342 135.359 15.4051L137.803 5.22394Z" fill="#231F20"/>
<path d="M161.037 8.28938C162.893 6.40077 165.389 5.30748 168.012 5.23401H171.622C172.203 5.21223 172.781 5.3293 173.31 5.57584C173.838 5.82239 174.303 6.19156 174.666 6.65378C175.033 7.09505 175.289 7.62088 175.411 8.18564C175.534 8.7504 175.519 9.33702 175.368 9.89462C175.289 10.1948 175.222 10.4578 175.163 10.6804C175.103 10.903 175.054 11.0851 175.014 11.2368C174.974 11.3886 174.941 11.5134 174.911 11.6145C174.881 11.7157 174.861 11.7933 174.851 11.8472C174.846 11.8865 174.836 11.9249 174.822 11.9619C174.811 11.9724 174.802 11.985 174.795 11.999C174.585 12.9253 174.057 13.7452 173.308 14.3124C172.556 14.8902 171.637 15.1953 170.695 15.1791H166.224C165.941 15.1517 165.673 15.0368 165.457 14.8499C165.24 14.663 165.085 14.4131 165.011 14.1337C164.93 13.8312 164.913 13.5142 164.963 13.2045C165.012 12.8948 165.127 12.5998 165.3 12.3396C165.662 11.7281 166.324 11.3335 167.287 11.1559H170.115L170.271 10.5286C170.315 10.3533 170.355 10.2049 170.39 10.0835C170.423 9.96207 170.45 9.86427 170.47 9.78334C170.49 9.7024 170.506 9.63832 170.516 9.59448L170.536 9.50343C170.539 9.4912 170.539 9.47856 170.536 9.46633H167.509C166.53 9.44091 165.569 9.73778 164.77 10.3128C163.997 10.8816 163.445 11.7944 163.114 13.0512C162.949 13.8998 163.099 14.7802 163.534 15.5231C163.976 16.2785 164.829 16.6562 166.095 16.6562H173.659C173.55 17.1081 173.45 17.5094 173.358 17.8601L173.106 18.7875C173.03 19.054 172.97 19.29 172.921 19.489C172.871 19.688 172.825 19.86 172.788 19.9949C172.752 20.1298 172.719 20.241 172.699 20.3321C172.679 20.4231 172.662 20.4872 172.646 20.5378C172.629 20.5884 172.622 20.6221 172.616 20.6424C172.615 20.6569 172.615 20.6716 172.616 20.6862H163.972C161.918 20.6862 160.442 20.1871 159.543 19.1889C158.656 18.2153 158.164 16.9356 158.166 15.6074C158.166 12.6352 159.123 10.1959 161.037 8.28938Z" fill="#231F20"/>
<path d="M182.307 5.22363H187L186.023 9.63806H183.373C183.066 9.64158 182.771 9.76183 182.545 9.9753C182.316 10.1818 182.154 10.4548 182.082 10.7577L179.671 20.6792H174.795L177.488 9.49305C178.194 7.00199 179.801 5.57886 182.307 5.22363Z" fill="#231F20"/>
<path d="M154.218 17.4316H139.714V20.6826H154.218V17.4316Z" fill="#231F20"/>
<path d="M87.6129 5.2373H84.4565V9.26391H87.6129V5.2373Z" fill="#231F20"/>
<path d="M40.5425 3.82434C41.2998 1.59184 42.7008 0.475586 44.7454 0.475586H58.3843L57.3477 5.08898H49.3988V5.10584H45.5767C45.4545 5.1113 45.3377 5.15886 45.2455 5.24074C45.1308 5.33036 45.0444 5.45232 44.9971 5.59146L44.4076 8.28936H52.4028L51.4092 12.9028H43.3842L41.652 20.6794H36.8098L40.5425 3.82434Z" fill="#231F20"/>
</g>
<defs>
<linearGradient id="paint0_linear_315_1193" x1="33.1467" y1="30.294" x2="132.408" y2="30.294" gradientUnits="userSpaceOnUse">
<stop stop-color="#7BC46B"/>
<stop offset="1" stop-color="#7BC46B" stop-opacity="0"/>
</linearGradient>
<clipPath id="clip0_315_1193">
<rect width="187" height="36" fill="white"/>
</clipPath>
</defs>
</svg>
