<svg width="41" height="40" viewBox="0 0 41 40" fill="none" xmlns="http://www.w3.org/2000/svg">
<g clip-path="url(#clip0_1180_2676)">
<path d="M32.3367 0H8.66327C4.15482 0 0.5 3.65482 0.5 8.16327V31.8367C0.5 36.3452 4.15482 40 8.66327 40H32.3367C36.8452 40 40.5 36.3452 40.5 31.8367V8.16327C40.5 3.65482 36.8452 0 32.3367 0Z" fill="#EFF4FF"/>
<path d="M21.2334 20.3508V30.0002L29.2434 25.854V16.2061L21.2334 20.3508Z" fill="#377DFF"/>
<path d="M11.5 25.0328L19.4847 29.9965V20.2944L11.5 15.4419V25.0328Z" fill="#377DFF"/>
<path d="M20.162 10L12.4062 13.9837C12.4229 13.9627 20.3577 18.9965 20.3577 18.9965L28.3684 14.7355L20.162 10Z" fill="#377DFF"/>
</g>
<defs>
<clipPath id="clip0_1180_2676">
<rect width="40" height="40" fill="white" transform="translate(0.5)"/>
</clipPath>
</defs>
</svg>
