<svg width="24" height="24" viewBox="0 0 24 24" fill="none" xmlns="http://www.w3.org/2000/svg">
<path d="M18 21.2001C17.6835 21.2001 17.3742 21.1063 17.1111 20.9305C16.848 20.7546 16.6429 20.5048 16.5218 20.2124C16.4007 19.92 16.369 19.5983 16.4307 19.288C16.4925 18.9776 16.6449 18.6925 16.8686 18.4687C17.0924 18.245 17.3775 18.0926 17.6879 18.0308C17.9982 17.9691 18.3199 18.0008 18.6123 18.1219C18.9047 18.243 19.1545 18.4481 19.3304 18.7112C19.5062 18.9743 19.6 19.2836 19.6 19.6001C19.6 20.0244 19.4314 20.4314 19.1314 20.7315C18.8313 21.0315 18.4243 21.2001 18 21.2001ZM18 18.8001C17.8418 18.8001 17.6871 18.847 17.5555 18.9349C17.424 19.0228 17.3214 19.1478 17.2609 19.294C17.2003 19.4401 17.1845 19.601 17.2154 19.7562C17.2462 19.9114 17.3224 20.0539 17.4343 20.1658C17.5462 20.2777 17.6887 20.3539 17.8439 20.3847C17.9991 20.4156 18.16 20.3998 18.3061 20.3392C18.4523 20.2787 18.5773 20.1761 18.6652 20.0446C18.7531 19.913 18.8 19.7583 18.8 19.6001C18.8 19.3879 18.7157 19.1844 18.5657 19.0344C18.4157 18.8844 18.2122 18.8001 18 18.8001ZM10.8 21.2001C10.4835 21.2001 10.1742 21.1063 9.91109 20.9305C9.64797 20.7546 9.44289 20.5048 9.32179 20.2124C9.20069 19.92 9.16901 19.5983 9.23074 19.288C9.29248 18.9776 9.44487 18.6925 9.66863 18.4687C9.89239 18.245 10.1775 18.0926 10.4879 18.0308C10.7982 17.9691 11.1199 18.0008 11.4123 18.1219C11.7047 18.243 11.9545 18.4481 12.1304 18.7112C12.3062 18.9743 12.4 19.2836 12.4 19.6001C12.4 20.0244 12.2314 20.4314 11.9314 20.7315C11.6313 21.0315 11.2243 21.2001 10.8 21.2001ZM10.8 18.8001C10.6418 18.8001 10.4871 18.847 10.3555 18.9349C10.224 19.0228 10.1214 19.1478 10.0609 19.294C10.0003 19.4401 9.9845 19.601 10.0154 19.7562C10.0462 19.9114 10.1224 20.0539 10.2343 20.1658C10.3462 20.2777 10.4887 20.3539 10.6439 20.3847C10.7991 20.4156 10.96 20.3998 11.1061 20.3392C11.2523 20.2787 11.3773 20.1761 11.4652 20.0446C11.5531 19.913 11.6 19.7583 11.6 19.6001C11.6 19.3879 11.5157 19.1844 11.3657 19.0344C11.2157 18.8844 11.0122 18.8001 10.8 18.8001ZM19.264 17.2001H9.664C9.44314 17.2004 9.2284 17.1276 9.05328 16.993C8.87817 16.8584 8.75254 16.6696 8.696 16.4561L5.728 4.5441C5.71588 4.50256 5.69062 4.46606 5.656 4.4401C5.62138 4.41413 5.57927 4.4001 5.536 4.4001H2V3.6001H5.536C5.75686 3.59981 5.9716 3.67264 6.14672 3.80723C6.32183 3.94182 6.44746 4.1306 6.504 4.3441L7.12 6.8001H20.992C21.1469 6.7943 21.3009 6.82458 21.4421 6.88853C21.5833 6.95249 21.7076 7.04837 21.8054 7.16862C21.9031 7.28887 21.9716 7.43019 22.0054 7.58143C22.0391 7.73267 22.0373 7.88969 22 8.0401L20.24 16.4001C20.1969 16.6267 20.0755 16.8309 19.8971 16.9772C19.7187 17.1234 19.4946 17.2023 19.264 17.2001ZM7.312 7.6001L9.472 16.2561C9.48412 16.2976 9.50938 16.3341 9.544 16.3601C9.57862 16.3861 9.62073 16.4001 9.664 16.4001H19.264C19.3083 16.3996 19.3512 16.3844 19.386 16.3569C19.4207 16.3294 19.4454 16.2911 19.456 16.2481L21.2 7.8721C21.2134 7.84471 21.2204 7.8146 21.2204 7.7841C21.2204 7.75359 21.2134 7.72349 21.2 7.6961C21.1836 7.66725 21.1605 7.64276 21.1326 7.62467C21.1048 7.60657 21.073 7.59541 21.04 7.5921L7.312 7.6001Z" fill="#4C5741" stroke="#4C5741" stroke-width="0.5"/>
</svg>
