<svg width="11" height="9" viewBox="0 0 11 9" fill="none" xmlns="http://www.w3.org/2000/svg">
<path d="M4.00343 8.58912C3.92392 8.58883 3.84528 8.57247 3.77225 8.54102C3.69921 8.50958 3.63329 8.46369 3.57843 8.40612L0.366434 5.06612C0.253413 4.94671 0.19043 4.78854 0.19043 4.62412C0.19043 4.4597 0.253413 4.30153 0.366434 4.18212C0.421107 4.12432 0.486995 4.07828 0.560071 4.04681C0.633146 4.01534 0.711872 3.99911 0.791434 3.99911C0.870996 3.99911 0.949722 4.01534 1.0228 4.04681C1.09587 4.07828 1.16176 4.12432 1.21643 4.18212L3.97943 7.05412L9.50343 0.621119C9.55462 0.560129 9.61771 0.510229 9.68885 0.474474C9.75999 0.43872 9.83768 0.417863 9.91716 0.413182C9.99664 0.408501 10.0762 0.420095 10.1511 0.447252C10.2259 0.474409 10.2944 0.516559 10.3524 0.571119C10.4719 0.684232 10.5434 0.838811 10.5523 1.00306C10.5613 1.1673 10.5069 1.32873 10.4004 1.45412L4.45243 8.38012C4.39912 8.44306 4.33324 8.49417 4.25902 8.53016C4.1848 8.56615 4.10387 8.58623 4.02143 8.58912H4.00343Z" fill="white"/>
</svg>
