<svg width="32" height="32" viewBox="0 0 32 32" fill="none" xmlns="http://www.w3.org/2000/svg">
<rect width="32" height="32" rx="3" fill="#FFECE8"/>
<path d="M16.5044 9.25C16.2624 9.25032 16.0206 9.26359 15.7799 9.28975C14.5326 9.4324 13.3551 9.94021 12.3952 10.7495C11.4353 11.5587 10.7357 12.6334 10.3842 13.8387C10.0327 15.044 10.0449 16.3263 10.4194 17.5247C10.7938 18.7231 11.5138 19.7842 12.4889 20.575C12.7949 20.8093 13.0449 21.1088 13.2205 21.4519C13.3962 21.7949 13.4932 22.1728 13.5044 22.558V22.75H15.7544V19H15.0044C14.8055 19 14.6148 18.921 14.4741 18.7803C14.3335 18.6397 14.2544 18.4489 14.2544 18.25C14.2544 18.0511 14.3335 17.8603 14.4741 17.7197C14.6148 17.579 14.8055 17.5 15.0044 17.5H18.0044C18.2033 17.5 18.3941 17.579 18.5348 17.7197C18.6754 17.8603 18.7544 18.0511 18.7544 18.25C18.7544 18.4489 18.6754 18.6397 18.5348 18.7803C18.3941 18.921 18.2033 19 18.0044 19H17.2544V22.75H19.5044V22.6202C19.4964 22.2487 19.5727 21.8802 19.7277 21.5424C19.8827 21.2047 20.1123 20.9065 20.3992 20.6702C21.4518 19.8572 22.2238 18.7352 22.607 17.4615C22.9902 16.1878 22.9654 14.8262 22.536 13.5673C22.1067 12.3084 21.2943 11.2153 20.2128 10.4411C19.1312 9.66693 17.8345 9.25046 16.5044 9.25Z" fill="#FF5733"/>
<path d="M15.7544 26.5C15.1577 26.5 14.5854 26.2629 14.1634 25.841C13.7414 25.419 13.5044 24.8467 13.5044 24.25H19.5044C19.5044 24.8467 19.2673 25.419 18.8454 25.841C18.4234 26.2629 17.8511 26.5 17.2544 26.5H15.7544Z" fill="#FF5733"/>
<path d="M16.5044 8.5C16.7033 8.5 16.8941 8.42098 17.0347 8.28033C17.1754 8.13968 17.2544 7.94891 17.2544 7.75V6.25C17.2544 6.05109 17.1754 5.86032 17.0347 5.71967C16.8941 5.57902 16.7033 5.5 16.5044 5.5C16.3055 5.5 16.1147 5.57902 15.9741 5.71967C15.8334 5.86032 15.7544 6.05109 15.7544 6.25V7.75C15.7544 7.94891 15.8334 8.13968 15.9741 8.28033C16.1147 8.42098 16.3055 8.5 16.5044 8.5Z" fill="#FF5733"/>
<path d="M25.8794 14.875H24.3794C24.1805 14.875 23.9897 14.954 23.8491 15.0947C23.7084 15.2353 23.6294 15.4261 23.6294 15.625C23.6294 15.8239 23.7084 16.0147 23.8491 16.1553C23.9897 16.296 24.1805 16.375 24.3794 16.375H25.8794C26.0783 16.375 26.2691 16.296 26.4097 16.1553C26.5504 16.0147 26.6294 15.8239 26.6294 15.625C26.6294 15.4261 26.5504 15.2353 26.4097 15.0947C26.2691 14.954 26.0783 14.875 25.8794 14.875Z" fill="#FF5733"/>
<path d="M8.62939 14.875H7.12939C6.93048 14.875 6.73972 14.954 6.59906 15.0947C6.45841 15.2353 6.37939 15.4261 6.37939 15.625C6.37939 15.8239 6.45841 16.0147 6.59906 16.1553C6.73972 16.296 6.93048 16.375 7.12939 16.375H8.62939C8.82831 16.375 9.01907 16.296 9.15972 16.1553C9.30038 16.0147 9.37939 15.8239 9.37939 15.625C9.37939 15.4261 9.30038 15.2353 9.15972 15.0947C9.01907 14.954 8.82831 14.875 8.62939 14.875Z" fill="#FF5733"/>
<path d="M22.0732 10.8062C22.1717 10.8064 22.2693 10.7871 22.3604 10.7494C22.4514 10.7117 22.534 10.6563 22.6035 10.5864L23.664 9.52592C23.8006 9.38447 23.8762 9.19501 23.8745 8.99837C23.8728 8.80172 23.7939 8.61361 23.6548 8.47455C23.5158 8.3355 23.3277 8.25662 23.131 8.25491C22.9344 8.2532 22.7449 8.3288 22.6035 8.46542L21.543 9.52592C21.4381 9.63081 21.3667 9.76443 21.3378 9.90989C21.3088 10.0554 21.3237 10.2061 21.3804 10.3432C21.4372 10.4802 21.5333 10.5973 21.6566 10.6797C21.7799 10.7621 21.9249 10.8061 22.0732 10.8062Z" fill="#FF5733"/>
<path d="M10.4054 10.5865C10.5469 10.7232 10.7363 10.7988 10.933 10.797C11.1296 10.7953 11.3177 10.7165 11.4568 10.5774C11.5959 10.4383 11.6747 10.2502 11.6764 10.0536C11.6781 9.85694 11.6026 9.66749 11.4659 9.52604L10.4054 8.46554C10.3362 8.39391 10.2535 8.33677 10.162 8.29746C10.0705 8.25816 9.97207 8.23747 9.87248 8.2366C9.7729 8.23574 9.67414 8.25471 9.58197 8.29242C9.4898 8.33013 9.40606 8.38582 9.33564 8.45624C9.26522 8.52666 9.20953 8.6104 9.17182 8.70257C9.13411 8.79475 9.11513 8.8935 9.116 8.99309C9.11686 9.09267 9.13755 9.19109 9.17686 9.28259C9.21616 9.3741 9.2733 9.45685 9.34493 9.52604L10.4054 10.5865Z" fill="#FF5733"/>
</svg>
