<svg width="18" height="18" viewBox="0 0 18 18" fill="none" xmlns="http://www.w3.org/2000/svg">
<path d="M9.00013 4.82666C8.18112 4.82666 7.3805 5.06952 6.69952 5.52454C6.01853 5.97956 5.48777 6.6263 5.17435 7.38297C4.86092 8.13964 4.77892 8.97225 4.9387 9.77553C5.09848 10.5788 5.49287 11.3167 6.072 11.8958C6.65113 12.4749 7.38899 12.8693 8.19226 13.0291C8.99554 13.1889 9.82816 13.1069 10.5848 12.7934C11.3415 12.48 11.9882 11.9493 12.4432 11.2683C12.8983 10.5873 13.1411 9.78667 13.1411 8.96766C13.139 7.87005 12.7021 6.818 11.9259 6.04187C11.1498 5.26574 10.0977 4.82877 9.00013 4.82666ZM9.00013 11.6207C8.47542 11.6207 7.96249 11.4651 7.5262 11.1735C7.08992 10.882 6.74988 10.4677 6.54908 9.98292C6.34828 9.49815 6.29574 8.96472 6.39811 8.45008C6.50048 7.93545 6.75315 7.46273 7.12418 7.09171C7.49521 6.72068 7.96793 6.468 8.48256 6.36564C8.99719 6.26327 9.53062 6.31581 10.0154 6.51661C10.5002 6.71741 10.9145 7.05745 11.206 7.49373C11.4975 7.93002 11.6531 8.44295 11.6531 8.96766C11.65 9.67031 11.3695 10.3433 10.8726 10.8401C10.3757 11.337 9.70278 11.6175 9.00013 11.6207Z" fill="url(#paint0_linear_443_1143)"/>
<path d="M13.303 5.66799C13.821 5.66799 14.241 5.24804 14.241 4.72999C14.241 4.21195 13.821 3.79199 13.303 3.79199C12.7849 3.79199 12.365 4.21195 12.365 4.72999C12.365 5.24804 12.7849 5.66799 13.303 5.66799Z" fill="url(#paint1_linear_443_1143)"/>
<path d="M15.729 2.3028C15.2825 1.86187 14.7506 1.5168 14.1659 1.28879C13.5813 1.06077 12.9562 0.954605 12.329 0.976803H5.66805C5.04217 0.939022 4.41539 1.03447 3.82913 1.25686C3.24287 1.47924 2.71047 1.82348 2.2671 2.26685C1.82373 2.71022 1.47948 3.24263 1.2571 3.82889C1.03472 4.41515 0.939266 5.04192 0.977048 5.6678V12.2998C0.953448 12.9393 1.06195 13.5768 1.29578 14.1724C1.5296 14.7681 1.88373 15.3091 2.33605 15.7618C3.24722 16.6094 4.45621 17.063 5.70005 17.0238H12.3C13.5552 17.0664 14.7767 16.613 15.7 15.7618C16.1434 15.311 16.4899 14.7743 16.7179 14.1845C16.946 13.5948 17.0508 12.9646 17.026 12.3328V5.6678C17.0455 5.04872 16.9408 4.43202 16.718 3.85408C16.4952 3.27614 16.159 2.74867 15.729 2.3028ZM15.6 12.3318C15.6157 12.769 15.5403 13.2046 15.3789 13.6112C15.2174 14.0178 14.9733 14.3864 14.662 14.6938C14.0136 15.2699 13.1667 15.5714 12.3 15.5348H5.70005C4.83344 15.5714 3.98651 15.2699 3.33805 14.6938C3.03885 14.3741 2.80731 13.9972 2.6573 13.5859C2.50728 13.1745 2.44189 12.7371 2.46505 12.2998V5.6678C2.4447 5.23567 2.5115 4.80386 2.66148 4.39807C2.81146 3.99229 3.04155 3.62083 3.33805 3.3058C3.98351 2.72469 4.83257 2.42238 5.70005 2.4648H12.364C12.7962 2.44446 13.228 2.51126 13.6338 2.66124C14.0396 2.81122 14.411 3.0413 14.726 3.3378C15.3062 3.97268 15.6189 4.80699 15.599 5.6668V12.3308L15.6 12.3318Z" fill="url(#paint2_linear_443_1143)"/>
<defs>
<linearGradient id="paint0_linear_443_1143" x1="3.58594" y1="10.774" x2="14.4151" y2="10.2585" gradientUnits="userSpaceOnUse">
<stop stop-color="#B900EB"/>
<stop offset="0.265625" stop-color="#C811BA"/>
<stop offset="0.744792" stop-color="#EC3C41"/>
<stop offset="1" stop-color="#FF5300"/>
</linearGradient>
<linearGradient id="paint1_linear_443_1143" x1="12.0766" y1="5.13916" x2="14.5296" y2="5.02238" gradientUnits="userSpaceOnUse">
<stop stop-color="#B900EB"/>
<stop offset="0.265625" stop-color="#C811BA"/>
<stop offset="0.744792" stop-color="#EC3C41"/>
<stop offset="1" stop-color="#FF5300"/>
</linearGradient>
<linearGradient id="paint2_linear_443_1143" x1="-1.5" y1="12.5" x2="19.5" y2="11.5" gradientUnits="userSpaceOnUse">
<stop stop-color="#B900EB"/>
<stop offset="0.265625" stop-color="#C811BA"/>
<stop offset="0.744792" stop-color="#EC3C41"/>
<stop offset="1" stop-color="#FF5300"/>
</linearGradient>
</defs>
</svg>
