<svg width="32" height="32" viewBox="0 0 32 32" fill="none" xmlns="http://www.w3.org/2000/svg">
<path d="M28.3429 0H3.65714C1.63736 0 0 1.63736 0 3.65714V28.3429C0 30.3626 1.63736 32 3.65714 32H28.3429C30.3626 32 32 30.3626 32 28.3429V3.65714C32 1.63736 30.3626 0 28.3429 0Z" fill="#FFF1F1"/>
<path d="M21.8157 18.0519L13.5049 16.75L14.6066 21.7027L21.8157 18.0519Z" fill="#D12053"/>
<path d="M21.8168 18.0518L15.5548 9.35059L13.5068 16.7508L21.8168 18.0518Z" fill="#E2136E"/>
<path d="M13.3118 16.6514L6.75 8.26465L15.3443 9.29139L13.3118 16.6514Z" fill="#D12053"/>
<path d="M10.3231 13.1506L6.67969 9.71289H7.63877L10.3231 13.1506Z" fill="#9E1638"/>
<path d="M23.5894 13.8223L22.047 18.0051L19.5474 14.5482L23.5894 13.8223Z" fill="#D12053"/>
<path d="M15.5767 21.4478L21.6274 19.0167L21.8816 18.2441L15.5767 21.4478Z" fill="#E2136E"/>
<path d="M10.7373 26.0388L13.3293 16.9453L14.644 22.8617L10.7373 26.0388Z" fill="#9E1638"/>
<path d="M23.8299 13.8555L23.1899 15.5826L25.4848 15.5451L23.8299 13.8555Z" fill="#E2136E"/>
</svg>
