<svg width="41" height="40" viewBox="0 0 41 40" fill="none" xmlns="http://www.w3.org/2000/svg">
<g clip-path="url(#clip0_344_6898)">
<path d="M32.3367 0H8.66327C4.15482 0 0.5 3.65482 0.5 8.16327V31.8367C0.5 36.3452 4.15482 40 8.66327 40H32.3367C36.8452 40 40.5 36.3452 40.5 31.8367V8.16327C40.5 3.65482 36.8452 0 32.3367 0Z" fill="#E8FFF6"/>
<path d="M17.4177 17.3199C17.4622 17.3199 17.5051 17.3145 17.5496 17.313C17.5114 17.0617 17.4912 16.8081 17.489 16.554C17.4896 15.5467 17.7768 14.5604 18.3171 13.7103C18.8574 12.8602 19.6285 12.1814 20.5402 11.7533C20.2075 11.2081 19.7378 10.7594 19.178 10.452C18.6181 10.1445 17.9875 9.98888 17.3489 10.0006C16.7103 10.0124 16.0858 10.191 15.5376 10.5189C14.9895 10.8467 14.5366 11.3123 14.2241 11.8694C13.9116 12.4265 13.7504 13.0556 13.7564 13.6943C13.7624 14.3331 13.9355 14.9591 14.2584 15.5102C14.5813 16.0613 15.0428 16.5183 15.597 16.8358C16.1513 17.1532 16.779 17.3201 17.4177 17.3199Z" fill="#36CE94"/>
<path d="M22.7811 20.6219C25.0277 20.6219 26.8489 18.8007 26.8489 16.5541C26.8489 14.3075 25.0277 12.4863 22.7811 12.4863C20.5345 12.4863 18.7133 14.3075 18.7133 16.5541C18.7133 18.8007 20.5345 20.6219 22.7811 20.6219Z" fill="#36CE94"/>
<path d="M26.3306 20.5643C25.3553 21.4322 24.0958 21.9127 22.7903 21.9149C21.4847 21.9172 20.2236 21.4411 19.2453 20.5766C17.9764 21.2875 16.922 22.3264 16.1925 23.5847C15.4629 24.8429 15.0851 26.2742 15.0986 27.7286C15.0988 28.2091 15.1401 28.6887 15.222 29.1622H30.3754C30.4577 28.689 30.4992 28.2096 30.4996 27.7293C30.5134 26.2705 30.1335 24.8349 29.3998 23.5739C28.666 22.3129 27.6057 21.2732 26.3306 20.5643Z" fill="#36CE94"/>
<path d="M18.4841 19.6642C18.2195 19.2931 18.0035 18.8897 17.8417 18.4636C17.7014 18.4759 17.5603 18.4836 17.4169 18.4836C16.2442 18.4843 15.1117 18.0559 14.2331 17.2792C13.0908 17.9193 12.1417 18.8547 11.485 19.9875C10.8283 21.1203 10.4882 22.4089 10.5003 23.7182C10.5008 24.1509 10.538 24.5828 10.6115 25.0092H14.3872C14.6537 23.8794 15.1566 22.8189 15.8628 21.8976C16.5689 20.9763 17.4623 20.2151 18.4841 19.6642Z" fill="#36CE94"/>
</g>
<defs>
<clipPath id="clip0_344_6898">
<rect width="40" height="40" fill="white" transform="translate(0.5)"/>
</clipPath>
</defs>
</svg>
