<svg width="24" height="24" viewBox="0 0 24 24" fill="none" xmlns="http://www.w3.org/2000/svg">
<path d="M20.1 5H4.171C3.86051 5.00026 3.56282 5.12372 3.34327 5.34327C3.12372 5.56282 3.00026 5.86051 3 6.171V17.234C3.00026 17.5445 3.12372 17.8422 3.34327 18.0617C3.56282 18.2813 3.86051 18.4047 4.171 18.405H20.1C20.4104 18.4045 20.7079 18.2809 20.9274 18.0614C21.1469 17.8419 21.2705 17.5444 21.271 17.234V6.171C21.2705 5.86059 21.1469 5.56305 20.9274 5.34356C20.7079 5.12407 20.4104 5.00053 20.1 5ZM4.168 5.641H20.1C20.2405 5.64126 20.3751 5.69719 20.4745 5.79652C20.5738 5.89586 20.6297 6.03051 20.63 6.171V7.565H3.641V6.171C3.64127 6.03051 3.69719 5.89586 3.79653 5.79652C3.89586 5.69719 4.03052 5.64126 4.171 5.641H4.168ZM20.633 10.13H3.641V8.206H20.633V10.13ZM20.103 17.764H4.171C4.03052 17.7637 3.89586 17.7078 3.79653 17.6085C3.69719 17.5091 3.64127 17.3745 3.641 17.234V10.771H20.633V17.234C20.6327 17.3745 20.5768 17.5091 20.4775 17.6085C20.3781 17.7078 20.2435 17.7637 20.103 17.764Z" fill="#A0A49D" stroke="#A0A49D" stroke-width="0.5"/>
<path d="M6.57 14.5581H5.403C5.35941 14.5557 5.31577 14.5622 5.27477 14.5772C5.23376 14.5922 5.19625 14.6154 5.16453 14.6454C5.1328 14.6754 5.10753 14.7116 5.09026 14.7517C5.07299 14.7918 5.06409 14.835 5.06409 14.8786C5.06409 14.9223 5.07299 14.9655 5.09026 15.0056C5.10753 15.0457 5.1328 15.0819 5.16453 15.1119C5.19625 15.1419 5.23376 15.1651 5.27477 15.1801C5.31577 15.1951 5.35941 15.2015 5.403 15.1991H6.57C6.61359 15.2015 6.65722 15.1951 6.69823 15.1801C6.73923 15.1651 6.77674 15.1419 6.80846 15.1119C6.84019 15.0819 6.86546 15.0457 6.88273 15.0056C6.9 14.9655 6.90891 14.9223 6.90891 14.8786C6.90891 14.835 6.9 14.7918 6.88273 14.7517C6.86546 14.7116 6.84019 14.6754 6.80846 14.6454C6.77674 14.6154 6.73923 14.5922 6.69823 14.5772C6.65722 14.5622 6.61359 14.5557 6.57 14.5581Z" fill="#A0A49D" stroke="#A0A49D" stroke-width="0.5"/>
<path d="M9.67302 14.5581H8.50603C8.46243 14.5557 8.4188 14.5622 8.37779 14.5772C8.33679 14.5922 8.29927 14.6154 8.26755 14.6454C8.23582 14.6754 8.21055 14.7116 8.19328 14.7517C8.17601 14.7918 8.16711 14.835 8.16711 14.8786C8.16711 14.9223 8.17601 14.9655 8.19328 15.0056C8.21055 15.0457 8.23582 15.0819 8.26755 15.1119C8.29927 15.1419 8.33679 15.1651 8.37779 15.1801C8.4188 15.1951 8.46243 15.2015 8.50603 15.1991H9.67302C9.71661 15.2015 9.76025 15.1951 9.80125 15.1801C9.84226 15.1651 9.87976 15.1419 9.91148 15.1119C9.94321 15.0819 9.96848 15.0457 9.98575 15.0056C10.003 14.9655 10.0119 14.9223 10.0119 14.8786C10.0119 14.835 10.003 14.7918 9.98575 14.7517C9.96848 14.7116 9.94321 14.6754 9.91148 14.6454C9.87976 14.6154 9.84226 14.5922 9.80125 14.5772C9.76025 14.5622 9.71661 14.5557 9.67302 14.5581Z" fill="#A0A49D" stroke="#A0A49D" stroke-width="0.5"/>
<path d="M12.777 14.5581H11.61C11.5664 14.5557 11.5228 14.5622 11.4818 14.5772C11.4408 14.5922 11.4033 14.6154 11.3716 14.6454C11.3398 14.6754 11.3146 14.7116 11.2973 14.7517C11.28 14.7918 11.2711 14.835 11.2711 14.8786C11.2711 14.9223 11.28 14.9655 11.2973 15.0056C11.3146 15.0457 11.3398 15.0819 11.3716 15.1119C11.4033 15.1419 11.4408 15.1651 11.4818 15.1801C11.5228 15.1951 11.5664 15.2015 11.61 15.1991H12.777C12.8206 15.2015 12.8643 15.1951 12.9053 15.1801C12.9463 15.1651 12.9838 15.1419 13.0155 15.1119C13.0472 15.0819 13.0725 15.0457 13.0898 15.0056C13.107 14.9655 13.1159 14.9223 13.1159 14.8786C13.1159 14.835 13.107 14.7918 13.0898 14.7517C13.0725 14.7116 13.0472 14.6754 13.0155 14.6454C12.9838 14.6154 12.9463 14.5922 12.9053 14.5772C12.8643 14.5622 12.8206 14.5557 12.777 14.5581Z" fill="#A0A49D" stroke="#A0A49D" stroke-width="0.5"/>
<path d="M17.785 13.2759C17.455 13.2754 17.1331 13.3778 16.864 13.5689C16.6243 13.4008 16.343 13.3017 16.0508 13.2824C15.7587 13.2631 15.4668 13.3243 15.2071 13.4594C14.9473 13.5945 14.7296 13.7983 14.5776 14.0486C14.4257 14.2989 14.3453 14.5861 14.3453 14.8789C14.3453 15.1717 14.4257 15.4589 14.5776 15.7092C14.7296 15.9595 14.9473 16.1633 15.2071 16.2984C15.4668 16.4335 15.7587 16.4947 16.0508 16.4754C16.343 16.4561 16.6243 16.357 16.864 16.1889C17.1331 16.38 17.455 16.4824 17.785 16.4819C18.2101 16.4819 18.6179 16.313 18.9185 16.0124C19.2191 15.7118 19.388 15.304 19.388 14.8789C19.388 14.4538 19.2191 14.046 18.9185 13.7454C18.6179 13.4448 18.2101 13.2759 17.785 13.2759ZM14.985 14.8759C14.985 14.6856 15.0414 14.4996 15.1471 14.3414C15.2528 14.1832 15.4031 14.0599 15.5789 13.9871C15.7546 13.9143 15.9481 13.8953 16.1347 13.9324C16.3213 13.9695 16.4927 14.0611 16.6272 14.1956C16.7618 14.3302 16.8534 14.5016 16.8905 14.6882C16.9276 14.8748 16.9086 15.0683 16.8358 15.2441C16.7629 15.4198 16.6396 15.5701 16.4814 15.6758C16.3232 15.7815 16.1373 15.8379 15.947 15.8379C15.6922 15.8382 15.4477 15.7373 15.2672 15.5576C15.0866 15.3778 14.9848 15.1337 14.984 14.8789L14.985 14.8759ZM17.785 15.8379C17.6176 15.8368 17.4534 15.7916 17.309 15.7069C17.4652 15.4578 17.548 15.1698 17.548 14.8759C17.548 14.5819 17.4652 14.2939 17.309 14.0449C17.4534 13.9601 17.6176 13.9149 17.785 13.9139C17.9113 13.9139 18.0364 13.9388 18.1531 13.9871C18.2699 14.0355 18.3759 14.1063 18.4652 14.1956C18.5546 14.285 18.6254 14.391 18.6738 14.5078C18.7221 14.6245 18.747 14.7496 18.747 14.8759C18.747 15.0022 18.7221 15.1273 18.6738 15.2441C18.6254 15.3608 18.5546 15.4668 18.4652 15.5561C18.3759 15.6455 18.2699 15.7163 18.1531 15.7647C18.0364 15.813 17.9113 15.8379 17.785 15.8379Z" fill="#A0A49D" stroke="#A0A49D" stroke-width="0.5"/>
</svg>
