<svg xmlns="http://www.w3.org/2000/svg" width="44" height="44" viewBox="0 0 44 44">
  <g id="Group_4949" data-name="Group 4949" transform="translate(0 -3)">
    <rect id="Rectangle_1577" data-name="Rectangle 1577" width="44" height="44" rx="6" transform="translate(0 3)" fill="#f6f6f6"/>
    <g id="Layer_2" transform="translate(8.7 8.9)">
      <g id="Layer_3" transform="translate(5.3 5.1)">
        <path id="Path_10479" data-name="Path 10479" d="M21.148,21.077l-1.653-2.042a1.319,1.319,0,0,1-.259-.778V14.045a5.9,5.9,0,0,0-4.278-5.671V6.72a1.625,1.625,0,0,0-1.62-1.62,1.647,1.647,0,0,0-1.62,1.62v1.62a5.892,5.892,0,0,0-4.278,5.7v4.213a1.319,1.319,0,0,1-.259.778L5.527,21.077a1.023,1.023,0,0,0-.227.616v2.56H21.439v-2.56A1.807,1.807,0,0,0,21.148,21.077ZM12.657,6.72a.648.648,0,0,1,1.3,0V8.179a4.564,4.564,0,0,0-1.329,0V6.72ZM20.4,23.249H6.207V21.693L7.86,19.651a2.148,2.148,0,0,0,.486-1.394V14.045a4.958,4.958,0,1,1,9.917,0v4.213a2.148,2.148,0,0,0,.486,1.394L20.4,21.693Z" transform="translate(-5.3 -5.1)" fill="#7f7f7f"/>
        <path id="Path_10480" data-name="Path 10480" d="M28,20.8v.972a3.61,3.61,0,0,1,3.6,3.6h.972A4.564,4.564,0,0,0,28,20.8Z" transform="translate(-20.643 -15.712)" fill="#7f7f7f"/>
        <path id="Path_10481" data-name="Path 10481" d="M24.457,66.385A1.674,1.674,0,0,1,22.772,64.7H21.8a2.657,2.657,0,1,0,5.315,0h-.972A1.674,1.674,0,0,1,24.457,66.385Z" transform="translate(-16.453 -45.385)" fill="#7f7f7f"/>
      </g>
    </g>
  </g>
</svg>
