<svg width="24" height="24" viewBox="0 0 24 24" fill="none" xmlns="http://www.w3.org/2000/svg">
<path d="M20.1782 16.0602C19.4317 15.2932 17.3098 13.8562 15.9191 13.8562C15.5969 13.8562 15.3157 13.9278 15.0857 14.0761C14.4056 14.5108 13.8637 14.8483 13.6029 14.8483C13.4597 14.8483 13.3063 14.7205 12.9689 14.429L12.9126 14.3778C11.977 13.5648 11.7776 13.3551 11.4145 12.9767L11.3225 12.8795C11.256 12.8131 11.1998 12.7517 11.1436 12.6955C10.8266 12.3682 10.5965 12.133 9.78351 11.2125L9.74772 11.1716C9.35913 10.7318 9.10348 10.4455 9.08815 10.2358C9.07281 10.0312 9.25176 9.69886 9.70681 9.08011C10.259 8.33352 10.2795 7.41307 9.77328 6.34432C9.36936 5.50057 8.70979 4.69261 8.12691 3.98182L8.07578 3.92045C7.57471 3.30682 6.99183 3 6.34248 3C5.62156 3 5.02334 3.38864 4.70634 3.59318C4.68077 3.60852 4.65521 3.62898 4.62964 3.64432C3.91894 4.09432 3.40253 4.71307 3.20824 5.34205C2.9168 6.28807 2.72251 7.51534 4.11835 10.067C5.32501 12.2761 6.41918 13.7591 8.15759 15.5437C9.79373 17.221 10.5198 17.7631 12.1457 18.9392C13.9557 20.2483 15.6941 21 16.911 21C18.0409 21 18.9306 21 20.1986 19.471C21.528 17.8653 20.9758 16.8835 20.1782 16.0602Z" fill="#41C946"/>
</svg>
