<svg width="87" height="64" viewBox="0 0 87 64" fill="none" xmlns="http://www.w3.org/2000/svg">
<path d="M19.8958 25.4999C18.9387 25.4999 18.0203 25.6444 17.1062 25.7762C17.4023 24.7902 17.707 23.7872 18.1963 22.8862C18.6855 21.5772 19.4495 20.4424 20.2091 19.2992C20.8442 18.0624 21.9644 17.2252 22.7884 16.1669C23.651 15.1384 24.8269 14.4542 25.7582 13.5999C26.6723 12.7074 27.8697 12.2612 28.8225 11.6322C29.8181 11.0669 30.685 10.4422 31.612 10.1447L33.9252 9.20119L35.9595 8.36394L33.878 0.127441L31.3159 0.73944C30.4962 0.94344 29.4962 1.18144 28.359 1.46619C27.1959 1.67869 25.9556 2.26094 24.5737 2.79219C23.209 3.39569 21.6296 3.80369 20.1619 4.77269C18.6855 5.69919 16.9817 6.47269 15.4797 7.71369C14.0248 8.99294 12.2695 10.1022 10.9734 11.7299C9.55716 13.2514 8.15808 14.8494 7.07229 16.6684C5.81483 18.4024 4.96079 20.3064 4.05954 22.1892C3.24412 24.0719 2.58749 25.9972 2.05104 27.8672C1.03391 31.6157 0.578994 35.1772 0.403035 38.2244C0.257119 41.2759 0.342952 43.8132 0.523202 45.6492C0.587577 46.5162 0.707744 47.3577 0.793577 47.9399L0.900868 48.6539L1.01245 48.6284C1.77577 52.1595 3.53296 55.4043 6.08075 57.9877C8.62854 60.5711 11.8628 62.3874 15.4094 63.2264C18.9561 64.0655 22.6701 63.8932 26.1219 62.7292C29.5738 61.5653 32.6223 59.4574 34.9149 56.6494C37.2076 53.8414 38.6506 50.448 39.077 46.8617C39.5035 43.2754 38.896 39.6429 37.3248 36.3843C35.7536 33.1257 33.2829 30.3741 30.1986 28.4479C27.1142 26.5218 23.5422 25.4997 19.8958 25.4999ZM67.1041 25.4999C66.1471 25.4999 65.2287 25.6444 64.3145 25.7762C64.6107 24.7902 64.9154 23.7872 65.4046 22.8862C65.8939 21.5772 66.6578 20.4424 67.4174 19.2992C68.0526 18.0624 69.1727 17.2252 69.9967 16.1669C70.8593 15.1384 72.0352 14.4542 72.9665 13.5999C73.8807 12.7074 75.078 12.2612 76.0308 11.6322C77.0265 11.0669 77.8934 10.4422 78.8204 10.1447L81.1336 9.20119L83.1678 8.36394L81.0864 0.127441L78.5242 0.73944C77.7045 0.94344 76.7046 1.18144 75.5673 1.46619C74.4043 1.67869 73.164 2.26094 71.782 2.79219C70.4216 3.39994 68.838 3.80369 67.3702 4.77694C65.8939 5.70344 64.1901 6.47694 62.688 7.71794C61.2331 8.99719 59.4778 10.1064 58.1817 11.7299C56.7655 13.2514 55.3664 14.8494 54.2806 16.6684C53.0232 18.4024 52.1691 20.3064 51.2679 22.1892C50.4525 24.0719 49.7958 25.9972 49.2594 27.8672C48.2422 31.6157 47.7873 35.1772 47.6114 38.2244C47.4655 41.2759 47.5513 43.8132 47.7315 45.6492C47.7959 46.5162 47.9161 47.3577 48.0019 47.9399L48.1092 48.6539L48.2208 48.6284C48.9841 52.1595 50.7413 55.4043 53.2891 57.9877C55.8369 60.5711 59.0712 62.3874 62.6178 63.2264C66.1644 64.0655 69.8784 63.8932 73.3303 62.7292C76.7821 61.5653 79.8307 59.4574 82.1233 56.6494C84.4159 53.8414 85.8589 50.448 86.2854 46.8617C86.7118 43.2754 86.1043 39.6429 84.5331 36.3843C82.962 33.1257 80.4913 30.3741 77.4069 28.4479C74.3226 26.5218 70.7506 25.4997 67.1041 25.4999Z" fill="#FF5733"/>
</svg>
