<svg width="41" height="40" viewBox="0 0 41 40" fill="none" xmlns="http://www.w3.org/2000/svg">
<path d="M32.3367 0H8.66327C4.15482 0 0.5 3.65482 0.5 8.16327V31.8367C0.5 36.3452 4.15482 40 8.66327 40H32.3367C36.8452 40 40.5 36.3452 40.5 31.8367V8.16327C40.5 3.65482 36.8452 0 32.3367 0Z" fill="#FFF2E1"/>
<path fill-rule="evenodd" clip-rule="evenodd" d="M19.7 13.5382C19.7 12.6779 18.9847 11.885 18.0278 12.0053C16.7068 12.1713 15.4372 12.6425 14.3221 13.3876C12.9078 14.3325 11.8056 15.6757 11.1546 17.2471C10.5037 18.8186 10.3334 20.5477 10.6653 22.216C10.9971 23.8842 11.8162 25.4166 13.0189 26.6193C14.2216 27.822 15.754 28.6411 17.4222 28.9729C19.0905 29.3048 20.8196 29.1345 22.3911 28.4836C23.9625 27.8326 25.3057 26.7304 26.2506 25.3161C26.9957 24.201 27.4669 22.9314 27.6329 21.6104C27.7532 20.6535 26.9603 19.9382 26.1 19.9382H20.6C20.1029 19.9382 19.7 19.5353 19.7 19.0382V13.5382Z" fill="#F87700"/>
<path fill-rule="evenodd" clip-rule="evenodd" d="M21.5 11.5383C21.5 10.6821 22.2155 9.8767 23.182 10.0157C23.8079 10.1058 24.4216 10.2738 25.0084 10.5168C25.9305 10.8988 26.7683 11.4586 27.474 12.1643C28.1797 12.87 28.7395 13.7078 29.1215 14.6299C29.3646 15.2167 29.5326 15.8304 29.6226 16.4563C29.7616 17.4228 28.9562 18.1383 28.1 18.1383H23.1C22.2163 18.1383 21.5 17.422 21.5 16.5383V11.5383Z" fill="#F87700"/>
</svg>
