<svg width="24" height="24" viewBox="0 0 24 24" fill="none" xmlns="http://www.w3.org/2000/svg">
<path d="M16.0909 19.7275V18.0911C16.0909 17.2231 15.7461 16.3907 15.1323 15.7769C14.5186 15.1632 13.6862 14.8184 12.8182 14.8184H6.27273C5.40475 14.8184 4.57232 15.1632 3.95856 15.7769C3.3448 16.3907 3 17.2231 3 18.0911V19.7275" stroke="#4C4D4B" stroke-width="1.2" stroke-linecap="round" stroke-linejoin="round"/>
<path d="M9.54616 11.5455C11.3536 11.5455 12.8189 10.0802 12.8189 8.27273C12.8189 6.46525 11.3536 5 9.54616 5C7.73869 5 6.27344 6.46525 6.27344 8.27273C6.27344 10.0802 7.73869 11.5455 9.54616 11.5455Z" stroke="#4C4D4B" stroke-width="1.2" stroke-linecap="round" stroke-linejoin="round"/>
<path d="M20.9995 19.727V18.0907C20.9989 17.3655 20.7576 16.6611 20.3133 16.088C19.869 15.5149 19.247 15.1056 18.5449 14.9243" stroke="#4C4D4B" stroke-width="1.2" stroke-linecap="round" stroke-linejoin="round"/>
<path d="M15.2734 5.10645C15.9774 5.28669 16.6014 5.69611 17.047 6.27015C17.4925 6.8442 17.7344 7.55022 17.7344 8.2769C17.7344 9.00358 17.4925 9.7096 17.047 10.2836C16.6014 10.8577 15.9774 11.2671 15.2734 11.4474" stroke="#4C4D4B" stroke-width="1.2" stroke-linecap="round" stroke-linejoin="round"/>
</svg>
