<svg width="24" height="24" viewBox="0 0 24 24" fill="none" xmlns="http://www.w3.org/2000/svg">
<path d="M2 8.24978V6.62489C2.00024 6.19401 2.1759 5.78085 2.48839 5.47617C2.80089 5.1715 3.22466 5.00023 3.66659 5H18.6659C19.1079 5.00023 19.5316 5.1715 19.8441 5.47617C20.1566 5.78085 20.3323 6.19401 20.3325 6.62489V8.24978H2ZM22 14.3436C22 15.0667 21.7801 15.7737 21.368 16.375C20.9559 16.9763 20.3702 17.4449 19.6849 17.7217C18.9996 17.9984 18.2456 18.0708 17.5181 17.9297C16.7906 17.7887 16.1224 17.4404 15.5979 16.9291C15.0734 16.4177 14.7162 15.7662 14.5715 15.0569C14.4268 14.3476 14.5011 13.6124 14.7849 12.9443C15.0688 12.2762 15.5494 11.7051 16.1662 11.3033C16.7829 10.9016 17.508 10.6871 18.2497 10.6871C19.2444 10.6871 20.1983 11.0724 20.9016 11.7581C21.6049 12.4438 22 13.3738 22 14.3436ZM20.2033 13.6267L19.6231 13.061L17.8638 14.8241L17.0377 14.0603L16.4575 14.6268L17.8638 15.9563L20.206 13.6267H20.2033ZM12.8329 14.3436C12.8324 15.7078 13.3756 17.0189 14.3479 18H3.66659C3.22466 17.9998 2.80089 17.8285 2.48839 17.5238C2.1759 17.2191 2.00024 16.806 2 16.3751V10.6871H14.3497C13.3771 11.6681 12.8335 12.9792 12.8337 14.3436H12.8329ZM8.66637 14.7502H4.49989V15.5627H8.66637V14.7502ZM11.1663 13.1253H4.49989V13.9378H11.1663V13.1253Z" fill="#FF8900"/>
</svg>
