<svg width="24" height="24" viewBox="0 0 24 24" fill="none" xmlns="http://www.w3.org/2000/svg">
<path d="M16.9189 8.684H8.05888C7.89259 8.684 7.73311 8.61794 7.61552 8.50035C7.49794 8.38277 7.43188 8.22329 7.43188 8.057V3.627C7.43188 3.46071 7.49794 3.30123 7.61552 3.18364C7.73311 3.06606 7.89259 3 8.05888 3H16.9189C17.0852 3 17.2447 3.06606 17.3622 3.18364C17.4798 3.30123 17.5459 3.46071 17.5459 3.627V8.057C17.5459 8.13934 17.5297 8.22087 17.4982 8.29694C17.4666 8.37301 17.4205 8.44213 17.3622 8.50035C17.304 8.55858 17.2349 8.60476 17.1588 8.63627C17.0828 8.66778 17.0012 8.684 16.9189 8.684ZM8.68588 7.43H16.2919V4.254H8.68588V7.43Z" fill="#4C4D4B"/>
<path d="M16.9189 19.8H8.05888C7.89259 19.8 7.73311 19.734 7.61552 19.6164C7.49794 19.4988 7.43188 19.3393 7.43188 19.173V12.3651C7.43188 12.1988 7.49794 12.0393 7.61552 11.9217C7.73311 11.8041 7.89259 11.738 8.05888 11.738H16.9189C17.0852 11.738 17.2447 11.8041 17.3622 11.9217C17.4798 12.0393 17.5459 12.1988 17.5459 12.3651V19.173C17.5459 19.2554 17.5297 19.3369 17.4982 19.413C17.4666 19.4891 17.4205 19.5582 17.3622 19.6164C17.304 19.6746 17.2349 19.7208 17.1588 19.7523C17.0828 19.7838 17.0012 19.8 16.9189 19.8ZM8.68588 18.5461H16.2919V12.991H8.68588V18.5461Z" fill="#4C4D4B"/>
<path d="M18.935 16.83H16.919C16.7527 16.83 16.5932 16.764 16.4756 16.6464C16.3581 16.5288 16.292 16.3693 16.292 16.203C16.292 16.0368 16.3581 15.8773 16.4756 15.7597C16.5932 15.6421 16.7527 15.576 16.919 15.576H18.935C19.1442 15.5758 19.3447 15.4926 19.4926 15.3447C19.6405 15.1968 19.7237 14.9962 19.724 14.787V9.47005C19.7237 9.26087 19.6405 9.06035 19.4926 8.91245C19.3447 8.76454 19.1442 8.68133 18.935 8.68106H6.043C5.83382 8.68133 5.63329 8.76454 5.48539 8.91245C5.33748 9.06035 5.25427 9.26087 5.254 9.47005V14.787C5.25427 14.9962 5.33748 15.1968 5.48539 15.3447C5.63329 15.4926 5.83382 15.5758 6.043 15.576H8.059C8.22529 15.576 8.38477 15.6421 8.50236 15.7597C8.61994 15.8773 8.686 16.0368 8.686 16.203C8.686 16.3693 8.61994 16.5288 8.50236 16.6464C8.38477 16.764 8.22529 16.83 8.059 16.83H6.043C5.50132 16.8295 4.98199 16.6141 4.59897 16.2311C4.21595 15.8481 4.00053 15.3287 4 14.787V9.47005C4.00132 8.92889 4.21709 8.41033 4.60003 8.02795C4.98296 7.64558 5.50184 7.43058 6.043 7.43005H18.935C19.4767 7.43058 19.996 7.646 20.379 8.02902C20.7621 8.41204 20.9775 8.93138 20.978 9.47305V14.7901C20.9775 15.3317 20.7621 15.8511 20.379 16.2341C19.996 16.6171 19.4767 16.8325 18.935 16.8331V16.83Z" fill="#4C4D4B"/>
<path d="M7.38993 10.8581C7.36928 10.8591 7.34859 10.8591 7.32794 10.8581L7.26693 10.849C7.24667 10.8451 7.22665 10.8401 7.20693 10.834C7.18893 10.828 7.16794 10.8211 7.14894 10.8131C7.12994 10.8051 7.11194 10.7961 7.09394 10.7871C7.07567 10.7778 7.05797 10.7674 7.04093 10.7561C7.02393 10.7451 7.00794 10.7331 6.99194 10.7201C6.97591 10.7068 6.96055 10.6928 6.94593 10.6781C6.93093 10.6631 6.91793 10.6481 6.90393 10.6321C6.89111 10.6163 6.8791 10.6 6.86794 10.5831C6.8566 10.5657 6.84627 10.548 6.83693 10.53C6.82693 10.512 6.81894 10.493 6.81094 10.474C6.80294 10.455 6.79593 10.4361 6.78993 10.4161C6.78393 10.3961 6.77894 10.3741 6.77494 10.3561C6.77084 10.3359 6.76784 10.3155 6.76593 10.295C6.76194 10.2535 6.76194 10.2116 6.76593 10.17C6.76593 10.15 6.77094 10.1281 6.77494 10.1091C6.77884 10.0888 6.78385 10.0688 6.78993 10.0491C6.79593 10.0311 6.80294 10.01 6.81094 9.99105C6.81894 9.97205 6.82793 9.95305 6.83693 9.93505C6.84593 9.91705 6.85694 9.89905 6.86794 9.88205C6.8791 9.86512 6.89111 9.84877 6.90393 9.83306C6.91715 9.81703 6.93117 9.80167 6.94593 9.78705C6.96093 9.77205 6.97594 9.75906 6.99194 9.74506C7.00762 9.7322 7.02397 9.72017 7.04093 9.70905C7.05797 9.69768 7.07567 9.68734 7.09394 9.67806L7.14894 9.65206C7.16794 9.64406 7.18693 9.63706 7.20693 9.63106C7.22693 9.62506 7.24893 9.62005 7.26693 9.61605C7.28709 9.61194 7.30746 9.60895 7.32794 9.60706C7.36885 9.60331 7.41002 9.60331 7.45094 9.60706C7.47094 9.60706 7.49293 9.61205 7.51193 9.61605C7.53188 9.61987 7.55158 9.6249 7.57093 9.63106C7.58893 9.63706 7.60993 9.64406 7.62893 9.65206C7.64793 9.66006 7.66593 9.66906 7.68393 9.67806C7.70214 9.68744 7.71983 9.69777 7.73693 9.70905C7.75393 9.72005 7.76994 9.73206 7.78594 9.74506C7.80197 9.75828 7.81732 9.77229 7.83193 9.78705C7.84693 9.80205 7.85993 9.81706 7.87393 9.83306C7.88692 9.84865 7.89894 9.86501 7.90994 9.88205C7.92117 9.89918 7.93151 9.91686 7.94094 9.93505C7.95094 9.95305 7.95894 9.97205 7.96694 9.99105C7.97494 10.01 7.98193 10.0291 7.98793 10.0491C7.99393 10.0691 7.99893 10.0911 8.00293 10.1091C8.00703 10.1292 8.01003 10.1496 8.01193 10.17C8.01593 10.2116 8.01593 10.2535 8.01193 10.295C8.01193 10.315 8.00693 10.3371 8.00293 10.3561C7.99903 10.3763 7.99402 10.3963 7.98793 10.4161C7.98193 10.4341 7.97494 10.455 7.96694 10.474C7.95894 10.493 7.94994 10.512 7.94094 10.53C7.93194 10.548 7.92094 10.5661 7.90994 10.5831C7.89894 10.6001 7.88593 10.6161 7.87393 10.6321C7.86083 10.6482 7.84681 10.6635 7.83193 10.6781C7.81693 10.6931 7.80194 10.7061 7.78594 10.7201C7.77025 10.7329 7.75389 10.7449 7.73693 10.7561C7.71984 10.7673 7.70215 10.7777 7.68393 10.7871L7.62893 10.8131C7.60993 10.8211 7.59093 10.828 7.57093 10.834C7.55154 10.8401 7.53185 10.8451 7.51193 10.849C7.49193 10.849 7.46994 10.8561 7.45094 10.8581C7.43062 10.8591 7.41025 10.8591 7.38993 10.8581Z" fill="#4C4D4B"/>
<path d="M9.2291 10.86C9.20846 10.8615 9.18773 10.8615 9.16709 10.86L9.1061 10.851C9.08584 10.8471 9.06581 10.8421 9.0461 10.836C9.0281 10.83 9.00709 10.823 8.98809 10.815C8.96909 10.807 8.95009 10.798 8.93209 10.789C8.91409 10.78 8.89609 10.769 8.87909 10.758C8.86216 10.7469 8.84581 10.7349 8.8301 10.722C8.81406 10.7088 8.7987 10.6948 8.78409 10.68C8.76909 10.665 8.7561 10.65 8.7421 10.634C8.72924 10.6184 8.71721 10.602 8.70609 10.585C8.69454 10.5679 8.68386 10.5502 8.67409 10.532C8.66509 10.514 8.65609 10.496 8.64809 10.477C8.64009 10.458 8.63309 10.439 8.62709 10.419C8.62109 10.399 8.61609 10.377 8.61209 10.359C8.608 10.3389 8.605 10.3185 8.60309 10.298C8.5991 10.2565 8.5991 10.2146 8.60309 10.173C8.60309 10.153 8.60809 10.131 8.61209 10.112C8.616 10.0918 8.62101 10.0718 8.62709 10.052C8.63309 10.034 8.64009 10.013 8.64809 9.99404C8.65609 9.97504 8.66509 9.95705 8.67409 9.93905C8.68386 9.92085 8.69454 9.90316 8.70609 9.88604C8.71709 9.86904 8.7291 9.85304 8.7421 9.83704C8.75532 9.82101 8.76933 9.80566 8.78409 9.79104C8.79909 9.77604 8.8141 9.76305 8.8301 9.74905C8.84581 9.73623 8.86216 9.7242 8.87909 9.71304C8.89643 9.7017 8.91409 9.69138 8.93209 9.68204C8.95009 9.67204 8.96909 9.66404 8.98809 9.65604C9.00709 9.64804 9.0261 9.64105 9.0461 9.63505C9.0661 9.62905 9.0881 9.62405 9.1061 9.62005C9.12625 9.61595 9.14661 9.61294 9.16709 9.61105C9.20866 9.60719 9.25051 9.60719 9.29209 9.61105L9.35309 9.62005C9.37335 9.62395 9.39338 9.62896 9.41309 9.63505C9.43109 9.64105 9.45209 9.64804 9.47109 9.65604C9.49009 9.66404 9.5081 9.67304 9.5261 9.68204C9.5441 9.69104 9.56209 9.70204 9.57909 9.71304C9.59602 9.7242 9.61239 9.73623 9.6281 9.74905C9.64413 9.76226 9.65948 9.77627 9.67409 9.79104C9.68909 9.80604 9.7021 9.82104 9.7161 9.83704C9.72908 9.85263 9.7411 9.86899 9.75209 9.88604C9.76332 9.90317 9.77368 9.92086 9.7831 9.93905C9.79243 9.95705 9.8011 9.97537 9.8091 9.99404C9.8171 10.013 9.8241 10.032 9.8301 10.052C9.8361 10.072 9.8411 10.094 9.8451 10.112C9.8492 10.1322 9.8522 10.1526 9.8541 10.173C9.85809 10.2146 9.85809 10.2565 9.8541 10.298C9.8541 10.318 9.8491 10.34 9.8451 10.359C9.84119 10.3793 9.83619 10.3993 9.8301 10.419C9.8241 10.437 9.8171 10.458 9.8091 10.477C9.8011 10.496 9.7921 10.514 9.7831 10.532C9.77368 10.5502 9.76332 10.5679 9.75209 10.585C9.74109 10.602 9.7281 10.618 9.7161 10.634C9.703 10.6502 9.68897 10.6655 9.67409 10.68C9.65909 10.695 9.6441 10.708 9.6281 10.722C9.61241 10.7349 9.59604 10.7469 9.57909 10.758C9.56195 10.7693 9.54427 10.7796 9.5261 10.789C9.5081 10.7984 9.48975 10.807 9.47109 10.815C9.45209 10.823 9.43309 10.83 9.41309 10.836C9.39309 10.842 9.37109 10.847 9.35309 10.851C9.33293 10.8551 9.31256 10.8581 9.29209 10.86C9.2711 10.8611 9.25008 10.8611 9.2291 10.86Z" fill="#4C4D4B"/>
<path d="M14.955 15.3709H10.024C9.85768 15.3709 9.6982 15.3049 9.58061 15.1873C9.46303 15.0697 9.39697 14.9102 9.39697 14.744C9.39697 14.5777 9.46303 14.4182 9.58061 14.3006C9.6982 14.183 9.85768 14.1169 10.024 14.1169H14.955C15.1213 14.1169 15.2807 14.183 15.3983 14.3006C15.5159 14.4182 15.582 14.5777 15.582 14.744C15.582 14.9102 15.5159 15.0697 15.3983 15.1873C15.2807 15.3049 15.1213 15.3709 14.955 15.3709Z" fill="#4C4D4B"/>
<path d="M14.955 17.586H10.024C9.85768 17.586 9.6982 17.52 9.58061 17.4024C9.46303 17.2848 9.39697 17.1253 9.39697 16.959C9.39697 16.7928 9.46303 16.6333 9.58061 16.5157C9.6982 16.3981 9.85768 16.332 10.024 16.332H14.955C15.1213 16.332 15.2807 16.3981 15.3983 16.5157C15.5159 16.6333 15.582 16.7928 15.582 16.959C15.582 17.1253 15.5159 17.2848 15.3983 17.4024C15.2807 17.52 15.1213 17.586 14.955 17.586Z" fill="#4C4D4B"/>
</svg>
