<svg width="24" height="24" viewBox="0 0 24 24" fill="none" xmlns="http://www.w3.org/2000/svg">
<path fill-rule="evenodd" clip-rule="evenodd" d="M4 8.435C4 7.25876 4.46726 6.13071 5.29898 5.29898C6.13071 4.46726 7.25876 4 8.435 4H16.15C17.3262 4 18.4543 4.46726 19.286 5.29898C20.1177 6.13071 20.585 7.25876 20.585 8.435V16.15C20.5842 17.3257 20.1166 18.453 19.285 19.2841C18.4533 20.1152 17.3257 20.582 16.15 20.582H11.905C11.7516 20.582 11.6044 20.5211 11.4959 20.4126C11.3874 20.3041 11.3265 20.1569 11.3265 20.0035C11.3265 19.8501 11.3874 19.7029 11.4959 19.5944C11.6044 19.4859 11.7516 19.425 11.905 19.425H16.15C17.0183 19.4242 17.8509 19.0789 18.4649 18.4649C19.0789 17.8509 19.4242 17.0183 19.425 16.15V8.435C19.425 7.56614 19.0801 6.73282 18.466 6.11816C17.8519 5.50351 17.0189 5.1578 16.15 5.157H8.435C7.56562 5.157 6.73185 5.50236 6.1171 6.1171C5.50236 6.73185 5.157 7.56562 5.157 8.435V16.15C5.157 17.0194 5.50236 17.8532 6.1171 18.4679C6.73185 19.0826 7.56562 19.428 8.435 19.428H8.82C8.97343 19.428 9.12057 19.4889 9.22906 19.5974C9.33755 19.7059 9.3985 19.8531 9.3985 20.0065C9.3985 20.1599 9.33755 20.3071 9.22906 20.4156C9.12057 20.5241 8.97343 20.585 8.82 20.585H8.435C7.25876 20.585 6.13071 20.1177 5.29898 19.286C4.46726 18.4543 4 17.3262 4 16.15V8.435Z" fill="#A0A49D" stroke="#A0A49D" stroke-width="0.2"/>
<path d="M15.2511 10.8382C14.6385 10.2529 13.8243 9.92567 12.9771 9.92421H10.0561L10.9031 9.07721C10.9978 8.98252 11.051 8.85411 11.051 8.72021C11.051 8.58631 10.9978 8.45789 10.9031 8.36321C10.8084 8.26852 10.68 8.21533 10.5461 8.21533C10.4122 8.21533 10.2838 8.26852 10.1891 8.36321L8.51711 10.0352C8.46964 10.0818 8.43193 10.1373 8.40619 10.1986C8.38045 10.2599 8.36719 10.3257 8.36719 10.3922C8.36719 10.4587 8.38045 10.5245 8.40619 10.5858C8.43193 10.6471 8.46964 10.7027 8.51711 10.7492L10.2571 12.4882C10.3518 12.5829 10.4802 12.6361 10.6141 12.6361C10.748 12.6361 10.8764 12.5829 10.9711 12.4882C11.0658 12.3935 11.119 12.2651 11.119 12.1312C11.119 11.9973 11.0658 11.8689 10.9711 11.7742L10.1241 10.9272H13.0001C13.325 10.9298 13.6453 11.0036 13.9385 11.1435C14.2316 11.2834 14.4905 11.486 14.6968 11.7369C14.9031 11.9879 15.0518 12.2811 15.1324 12.5958C15.2129 12.9105 15.2234 13.239 15.1631 13.5582C15.1 13.8802 14.9675 14.1847 14.775 14.4504C14.5825 14.7162 14.3344 14.9369 14.0481 15.0972C13.5621 15.3008 13.0343 15.3849 12.5091 15.3422C12.3731 15.3422 12.2426 15.3963 12.1464 15.4925C12.0502 15.5887 11.9961 15.7191 11.9961 15.8552C11.9961 15.9913 12.0502 16.1217 12.1464 16.218C12.2426 16.3142 12.3731 16.3682 12.5091 16.3682C13.0358 16.3986 13.5638 16.3384 14.0701 16.1902C14.5858 16.006 15.0463 15.6938 15.4085 15.2831C15.7706 14.8723 16.0225 14.3763 16.1407 13.8415C16.2588 13.3068 16.2392 12.7508 16.0838 12.2257C15.9284 11.7006 15.6422 11.2235 15.2521 10.8392L15.2511 10.8382Z" fill="#A0A49D" stroke="#A0A49D" stroke-width="0.2"/>
</svg>
