<svg width="24" height="24" viewBox="0 0 24 24" fill="none" xmlns="http://www.w3.org/2000/svg">
<path d="M15.6788 20C15.5808 20 15.4828 19.996 15.3844 19.9888C13.7665 19.8654 12.2175 19.2825 10.9195 18.3087C8.93782 16.8223 7.17752 15.0617 5.69146 13.0796C4.71761 11.7817 4.13474 10.2326 4.01144 8.61459C3.9688 8.0652 4.04569 7.51313 4.23683 6.9963C4.42797 6.47952 4.72881 6.01024 5.11865 5.62083L6.12106 4.61718C6.51695 4.22197 7.05348 4 7.61288 4C8.17229 4 8.70882 4.22197 9.1047 4.61718L10.0111 5.52403C10.207 5.71994 10.3624 5.95252 10.4685 6.2085C10.5745 6.46448 10.6291 6.73885 10.6291 7.01591C10.6291 7.29296 10.5745 7.56733 10.4685 7.82331C10.3624 8.07928 10.207 8.31189 10.0111 8.50778L9.49111 9.02781C9.27754 9.24226 9.14462 9.52392 9.11482 9.8251C9.08502 10.1263 9.16014 10.4285 9.32751 10.6807C10.38 12.2624 11.7368 13.6189 13.3188 14.6709C13.571 14.838 13.8732 14.913 14.1743 14.8831C14.4754 14.8533 14.757 14.7206 14.9716 14.5073L15.4916 13.9873C15.6875 13.7913 15.9201 13.6359 16.176 13.5299C16.432 13.4238 16.7064 13.3693 16.9834 13.3693C17.2604 13.3693 17.5348 13.4238 17.7908 13.5299C18.0467 13.6359 18.2793 13.7913 18.4752 13.9873L19.382 14.8937C19.578 15.0897 19.7334 15.3222 19.8394 15.5782C19.9454 15.8342 20 16.1086 20 16.3856C20 16.6627 19.9454 16.937 19.8394 17.193C19.7334 17.449 19.578 17.6816 19.382 17.8775L18.3772 18.8799C18.0231 19.2348 17.6025 19.5164 17.1395 19.7086C16.6765 19.9008 16.1801 19.9998 15.6788 20ZM7.61268 4.79919C7.44072 4.79897 7.27036 4.83271 7.11148 4.89847C6.95256 4.96423 6.80819 5.06072 6.68667 5.18241L5.68306 6.18646C5.37488 6.49436 5.13703 6.86538 4.98588 7.27396C4.83473 7.68254 4.77386 8.11904 4.80745 8.55339C4.91978 10.0197 5.44836 11.4234 6.33107 12.5996C7.77177 14.5204 9.47803 16.2267 11.3987 17.6675C12.5748 18.5504 13.9785 19.079 15.4448 19.1912C15.8791 19.2242 16.3154 19.163 16.7239 19.0119C17.1324 18.8608 17.5034 18.6232 17.8116 18.3155L18.8152 17.3119C19.0608 17.0662 19.1988 16.733 19.1988 16.3856C19.1988 16.0382 19.0608 15.705 18.8152 15.4594L17.9084 14.5529C17.659 14.3145 17.3274 14.1814 16.9824 14.1814C16.6374 14.1814 16.3058 14.3145 16.0564 14.5529L15.5364 15.0729C15.1909 15.4168 14.7374 15.6308 14.2523 15.6789C13.7673 15.7269 13.2805 15.606 12.8743 15.3365C11.2047 14.2259 9.77291 12.794 8.6623 11.1243C8.39277 10.7181 8.27181 10.2314 8.31985 9.74629C8.36789 9.26123 8.58198 8.8076 8.9259 8.46218L9.44591 7.94215C9.69151 7.69654 9.82947 7.36344 9.82947 7.01611C9.82947 6.66877 9.69151 6.33566 9.44591 6.09006L8.5391 5.18281C8.41753 5.06104 8.27309 4.96447 8.11413 4.89864C7.95517 4.83281 7.78477 4.79901 7.61268 4.79919Z" fill="#A3A5A8" stroke="#A3A5A8" stroke-width="0.4"/>
</svg>
