<svg width="24" height="24" viewBox="0 0 24 24" fill="none" xmlns="http://www.w3.org/2000/svg">
<path d="M19.04 10.02C19.04 8.15818 18.3004 6.37262 16.9839 5.05611C15.6674 3.7396 13.8818 3 12.02 3C10.1582 3 8.37262 3.7396 7.05611 5.05611C5.7396 6.37262 5 8.15818 5 10.02C5 16.402 12.02 21.388 12.02 21.388C12.02 21.388 19.04 16.4 19.04 10.02Z" stroke="#A0A49D" stroke-width="1.6" stroke-linecap="round" stroke-linejoin="round"/>
<path d="M12 13.145C13.6569 13.145 15 11.8019 15 10.145C15 8.48817 13.6569 7.14502 12 7.14502C10.3431 7.14502 9 8.48817 9 10.145C9 11.8019 10.3431 13.145 12 13.145Z" stroke="#A0A49D" stroke-width="1.6" stroke-linecap="round" stroke-linejoin="round"/>
</svg>
