<svg width="25" height="25" viewBox="0 0 25 25" fill="none" xmlns="http://www.w3.org/2000/svg">
<path d="M19.731 20.5001V18.7211C19.731 18.2538 19.639 17.7912 19.4602 17.3595C19.2814 16.9278 19.0193 16.5356 18.6889 16.2052C18.3585 15.8748 17.9663 15.6127 17.5346 15.4339C17.1029 15.2551 16.6402 15.1631 16.173 15.1631H9.058C8.11436 15.1631 7.20937 15.5379 6.54211 16.2052C5.87486 16.8725 5.5 17.7774 5.5 18.7211V20.5001" stroke="#A0A49D" stroke-width="2" stroke-linecap="round" stroke-linejoin="round"/>
<path d="M13 11.5C14.933 11.5 16.5 9.933 16.5 8C16.5 6.067 14.933 4.5 13 4.5C11.067 4.5 9.5 6.067 9.5 8C9.5 9.933 11.067 11.5 13 11.5Z" stroke="#A0A49D" stroke-width="2" stroke-linecap="round" stroke-linejoin="round"/>
</svg>
