<svg width="24" height="24" viewBox="0 0 24 24" fill="none" xmlns="http://www.w3.org/2000/svg">
<path d="M16.5 3.0001H4.5C4.33201 2.99854 4.16435 3.0153 4 3.0501C3.43532 3.16537 2.9278 3.47219 2.56335 3.91865C2.19889 4.36511 1.99988 4.92377 2 5.5001C2 5.76532 2.10536 6.01967 2.29289 6.20721C2.48043 6.39474 2.73478 6.5001 3 6.5001H6V18.9201C5.99949 19.175 6.06395 19.4259 6.18731 19.6489C6.31066 19.872 6.48883 20.06 6.705 20.1951C7.17 20.5001 7.39 21.0001 8.165 21.0001C9.25 21.0001 9.25 20.0001 10.33 20.0001C11.41 20.0001 11.415 21.0001 12.495 21.0001C13.575 21.0001 13.58 20.0001 14.665 20.0001C15.75 20.0001 15.745 21.0001 16.83 21.0001C17.61 21.0001 17.83 20.5001 18.295 20.1951C18.5112 20.06 18.6893 19.872 18.8127 19.6489C18.936 19.4259 19.0005 19.175 19 18.9201V5.5001C19 4.83706 18.7366 4.20117 18.2678 3.73233C17.7989 3.26349 17.163 3.0001 16.5 3.0001ZM3 5.5001C2.99965 5.16994 3.10824 4.84889 3.30893 4.58673C3.50962 4.32457 3.7912 4.13594 4.11 4.0501H4.215C4.30821 4.02447 4.40363 4.00773 4.5 4.0001C4.89697 3.99912 5.27815 4.15555 5.56 4.4351C5.76673 4.64585 5.90897 4.91126 5.97 5.2001C5.98519 5.29951 5.99521 5.39965 6 5.5001H3ZM18 18.9201C17.9996 19.0055 17.9774 19.0895 17.9354 19.1639C17.8934 19.2383 17.833 19.3007 17.76 19.3451C17.5733 19.4698 17.3976 19.6103 17.235 19.7651C16.99 19.9901 16.965 20.0001 16.83 20.0001C16.695 20.0001 16.67 20.0001 16.425 19.7651C16.1994 19.5279 15.928 19.339 15.6271 19.21C15.3263 19.0809 15.0024 19.0144 14.675 19.0144C14.3476 19.0144 14.0237 19.0809 13.7229 19.21C13.422 19.339 13.1506 19.5279 12.925 19.7651C12.68 19.9901 12.655 20.0001 12.52 20.0001C12.385 20.0001 12.365 20.0001 12.12 19.7651C11.8944 19.5279 11.623 19.339 11.3221 19.21C11.0213 19.0809 10.6974 19.0144 10.37 19.0144C10.0426 19.0144 9.71872 19.0809 9.41788 19.21C9.11704 19.339 8.84559 19.5279 8.62 19.7651C8.375 19.9901 8.35 20.0001 8.215 20.0001C8.08 20.0001 8.06 20.0001 7.815 19.7651C7.65339 19.6091 7.47763 19.4685 7.29 19.3451C7.21701 19.3007 7.15663 19.2383 7.11462 19.1639C7.0726 19.0895 7.05036 19.0055 7.05 18.9201V5.5001C7.05085 4.98146 6.93643 4.4691 6.715 4.0001H16.5C16.8978 4.0001 17.2794 4.15814 17.5607 4.43944C17.842 4.72074 18 5.10228 18 5.5001V18.9201Z" fill="#A3A5A8"/>
<path d="M17.5 6H14.5C14.3674 6 14.2402 6.05268 14.1464 6.14645C14.0527 6.24021 14 6.36739 14 6.5C14 6.63261 14.0527 6.75979 14.1464 6.85355C14.2402 6.94732 14.3674 7 14.5 7H17.5C17.6326 7 17.7598 6.94732 17.8536 6.85355C17.9473 6.75979 18 6.63261 18 6.5C18 6.36739 17.9473 6.24021 17.8536 6.14645C17.7598 6.05268 17.6326 6 17.5 6Z" fill="#A3A5A8"/>
<path d="M17.5 8H14.5C14.3674 8 14.2402 8.05268 14.1464 8.14645C14.0527 8.24021 14 8.36739 14 8.5C14 8.63261 14.0527 8.75979 14.1464 8.85355C14.2402 8.94732 14.3674 9 14.5 9H17.5C17.6326 9 17.7598 8.94732 17.8536 8.85355C17.9473 8.75979 18 8.63261 18 8.5C18 8.36739 17.9473 8.24021 17.8536 8.14645C17.7598 8.05268 17.6326 8 17.5 8Z" fill="#A3A5A8"/>
<path d="M17.5 10H14.5C14.3674 10 14.2402 10.0527 14.1464 10.1464C14.0527 10.2402 14 10.3674 14 10.5C14 10.6326 14.0527 10.7598 14.1464 10.8536C14.2402 10.9473 14.3674 11 14.5 11H17.5C17.6326 11 17.7598 10.9473 17.8536 10.8536C17.9473 10.7598 18 10.6326 18 10.5C18 10.3674 17.9473 10.2402 17.8536 10.1464C17.7598 10.0527 17.6326 10 17.5 10Z" fill="#A3A5A8"/>
<path d="M17.5 12.5H9.5C9.36739 12.5 9.24021 12.5527 9.14645 12.6464C9.05268 12.7402 9 12.8674 9 13C9 13.1326 9.05268 13.2598 9.14645 13.3536C9.24021 13.4473 9.36739 13.5 9.5 13.5H17.5C17.6326 13.5 17.7598 13.4473 17.8536 13.3536C17.9473 13.2598 18 13.1326 18 13C18 12.8674 17.9473 12.7402 17.8536 12.6464C17.7598 12.5527 17.6326 12.5 17.5 12.5Z" fill="#A3A5A8"/>
<path d="M17.5 14.5H9.5C9.36739 14.5 9.24021 14.5527 9.14645 14.6464C9.05268 14.7402 9 14.8674 9 15C9 15.1326 9.05268 15.2598 9.14645 15.3536C9.24021 15.4473 9.36739 15.5 9.5 15.5H17.5C17.6326 15.5 17.7598 15.4473 17.8536 15.3536C17.9473 15.2598 18 15.1326 18 15C18 14.8674 17.9473 14.7402 17.8536 14.6464C17.7598 14.5527 17.6326 14.5 17.5 14.5Z" fill="#A3A5A8"/>
<path d="M10 11H12C12.2652 11 12.5196 10.8946 12.7071 10.7071C12.8946 10.5196 13 10.2652 13 10V7C13 6.73478 12.8946 6.48043 12.7071 6.29289C12.5196 6.10536 12.2652 6 12 6H10C9.73478 6 9.48043 6.10536 9.29289 6.29289C9.10536 6.48043 9 6.73478 9 7V10C9 10.2652 9.10536 10.5196 9.29289 10.7071C9.48043 10.8946 9.73478 11 10 11ZM10 7H12V10H10V7Z" fill="#A3A5A8"/>
</svg>
