<svg width="24" height="24" viewBox="0 0 24 24" fill="none" xmlns="http://www.w3.org/2000/svg">
<path d="M4 11.338C4 9.48066 5.50566 7.975 7.36298 7.975V7.975C7.9011 7.975 8.38744 7.65431 8.59941 7.1597L8.76 6.785C9.22409 5.70212 10.2889 5 11.467 5H12.5H13.533C14.7111 5 15.7759 5.70212 16.24 6.785L16.4006 7.1597C16.6126 7.65431 17.0989 7.975 17.637 7.975V7.975C19.4943 7.975 21 9.48066 21 11.338V14.875C21 17.6364 18.7614 19.875 16 19.875H9C6.23858 19.875 4 17.6364 4 14.875V11.338Z" stroke="#4C4D4B" stroke-width="1.2"/>
<circle cx="2.55" cy="2.55" r="2.55" transform="matrix(-1 0 0 1 15.0508 10.5249)" stroke="#4C4D4B" stroke-width="1.2"/>
</svg>
