<svg width="24" height="24" viewBox="0 0 24 24" fill="none" xmlns="http://www.w3.org/2000/svg">
<path d="M9.26172 13.1328C7.01953 13.1328 5.19531 11.3086 5.19531 9.06641C5.19531 6.82422 7.01953 5 9.26172 5C11.5039 5 13.3281 6.82422 13.3281 9.06641C13.3281 11.3086 11.5039 13.1328 9.26172 13.1328ZM9.26172 5.82422C7.47266 5.82422 6.01953 7.27734 6.01953 9.06641C6.01953 10.8555 7.47266 12.3086 9.26172 12.3086C11.0508 12.3086 12.5039 10.8555 12.5039 9.06641C12.5039 7.27734 11.0508 5.82422 9.26172 5.82422Z" fill="#A3A5A8" stroke="#A3A5A8" stroke-width="0.4"/>
<path d="M16.1133 19.9844C15.8867 19.9844 15.7031 19.8008 15.7031 19.5742C15.7031 16.0234 12.8164 13.1367 9.26562 13.1367C5.71484 13.1367 2.82422 16.0195 2.82422 19.5703C2.82422 19.7969 2.64062 19.9805 2.41406 19.9805C2.1875 19.9805 2 19.7969 2 19.5703C2 15.5664 5.25781 12.3086 9.26172 12.3086C13.2656 12.3086 16.5234 15.5664 16.5234 19.5703C16.5234 19.7969 16.3398 19.9844 16.1133 19.9844Z" fill="#A3A5A8" stroke="#A3A5A8" stroke-width="0.4"/>
<path d="M21.5898 11.8555H15.1953C14.9687 11.8555 14.7852 11.6719 14.7852 11.4453C14.7852 11.2188 14.9687 11.0352 15.1953 11.0352H21.5898C21.8164 11.0352 22 11.2188 22 11.4453C22 11.6719 21.8164 11.8555 21.5898 11.8555Z" fill="#A3A5A8" stroke="#A3A5A8" stroke-width="0.4"/>
<path d="M18.3906 15.0508C18.1641 15.0508 17.9805 14.8672 17.9805 14.6406V8.24609C17.9805 8.01953 18.1641 7.83594 18.3906 7.83594C18.6172 7.83594 18.8008 8.01953 18.8008 8.24609V14.6406C18.8047 14.8672 18.6172 15.0508 18.3906 15.0508Z" fill="#A3A5A8" stroke="#A3A5A8" stroke-width="0.4"/>
</svg>
