<svg width="24" height="24" viewBox="0 0 24 24" fill="none" xmlns="http://www.w3.org/2000/svg">
<g clip-path="url(#clip0_853_2620)">
<path d="M18.3249 10.5051H17.233V7.83526C17.2424 7.19465 17.1271 6.55851 16.8938 5.96385C16.6604 5.36919 16.3137 4.8279 15.8737 4.37145C15.4337 3.91501 14.9093 3.55254 14.3309 3.30513C13.7526 3.05771 13.1318 2.9303 12.5049 2.9303C11.8779 2.9303 11.2571 3.05771 10.6788 3.30513C10.1004 3.55254 9.57602 3.91501 9.13603 4.37145C8.69605 4.8279 8.34929 5.36919 8.11593 5.96385C7.88257 6.55851 7.76728 7.19465 7.77675 7.83526V10.5051H6.69666C6.6064 10.5029 6.51661 10.519 6.43253 10.5527C6.34845 10.5863 6.27176 10.6366 6.20692 10.7008C6.14208 10.765 6.09039 10.8418 6.05487 10.9266C6.01934 11.0114 6.00069 11.1026 6 11.1949V19.2617C6.002 19.7233 6.18276 20.1652 6.50275 20.491C6.82275 20.8167 7.25594 20.9997 7.70763 21H17.3043C17.5273 20.9997 17.7481 20.9545 17.9541 20.867C18.1601 20.7795 18.3471 20.6513 18.5046 20.4899C18.6621 20.3285 18.7869 20.1369 18.8719 19.9262C18.9569 19.7154 19.0004 19.4896 19 19.2617V11.1949C19.0006 11.1041 18.9835 11.0142 18.9498 10.9302C18.9161 10.8462 18.8664 10.77 18.8036 10.7058C18.7408 10.6416 18.6661 10.5908 18.584 10.5564C18.5018 10.5219 18.4138 10.5045 18.3249 10.5051ZM9.13227 7.83857C9.12426 7.38139 9.20546 6.92717 9.37113 6.50241C9.53681 6.07766 9.78363 5.69089 10.0972 5.36468C10.4108 5.03848 10.7848 4.77937 11.1974 4.6025C11.6101 4.42563 12.0531 4.33454 12.5005 4.33454C12.948 4.33454 13.391 4.42563 13.8036 4.6025C14.2163 4.77937 14.5903 5.03848 14.9039 5.36468C15.2174 5.69089 15.4643 6.07766 15.6299 6.50241C15.7956 6.92717 15.8768 7.38139 15.8688 7.83857V10.5051H9.13227V7.83857ZM17.6412 19.2617C17.6417 19.3072 17.6333 19.3523 17.6166 19.3944C17.6 19.4366 17.5753 19.4749 17.5441 19.5073C17.5129 19.5397 17.4758 19.5655 17.4348 19.5832C17.3938 19.6009 17.3498 19.6102 17.3053 19.6105H7.70763C7.6165 19.6105 7.52901 19.574 7.46397 19.5087C7.39893 19.4435 7.36154 19.3548 7.35984 19.2617V11.8935H17.6402L17.6412 19.2617Z" fill="#A3A5A8"/>
<path d="M12.4988 17.8369C12.5881 17.8369 12.6765 17.8189 12.759 17.7839C12.8415 17.749 12.9164 17.6977 12.9795 17.6332C13.0426 17.5686 13.0927 17.4918 13.1267 17.4075C13.1608 17.3231 13.1783 17.2328 13.1782 17.1415V14.6372C13.1782 14.453 13.1065 14.2763 12.979 14.146C12.8515 14.0157 12.6786 13.9424 12.4982 13.9424C12.3179 13.9424 12.145 14.0157 12.0174 14.146C11.8899 14.2763 11.8184 14.453 11.8184 14.6372V17.1415C11.8184 17.326 11.89 17.5028 12.0176 17.6332C12.1453 17.7636 12.3184 17.8369 12.4988 17.8369Z" fill="#A3A5A8"/>
</g>
<defs>
<clipPath id="clip0_853_2620">
<rect width="13" height="18" fill="white" transform="translate(6 3)"/>
</clipPath>
</defs>
</svg>
