<svg width="24" height="24" viewBox="0 0 24 24" fill="none" xmlns="http://www.w3.org/2000/svg">
<path d="M15.824 4H8C5.79086 4 4 5.79086 4 8V15.824C4 18.0331 5.79086 19.824 8 19.824H15.824C18.0331 19.824 19.824 18.0331 19.824 15.824V8C19.824 5.79086 18.0331 4 15.824 4Z" stroke="#A0A49D" stroke-width="1.5"/>
<path d="M8.29402 15.5312C8.34277 15.5824 8.40142 15.6232 8.46639 15.651C8.53137 15.6789 8.60133 15.6932 8.67202 15.6932C8.74271 15.6932 8.81267 15.6789 8.87765 15.651C8.94262 15.6232 9.00127 15.5824 9.05002 15.5312L11.913 12.6682L14.776 15.5312C14.8248 15.5824 14.8834 15.6232 14.9484 15.651C15.0134 15.6789 15.0833 15.6932 15.154 15.6932C15.2247 15.6932 15.2947 15.6789 15.3596 15.651C15.4246 15.6232 15.4833 15.5824 15.532 15.5312C15.5832 15.4825 15.624 15.4238 15.6518 15.3588C15.6797 15.2939 15.694 15.2239 15.694 15.1532C15.694 15.0825 15.6797 15.0126 15.6518 14.9476C15.624 14.8826 15.5832 14.824 15.532 14.7752L12.669 11.9122L15.532 9.04921C15.585 9.00033 15.6275 8.94127 15.6571 8.87555C15.6866 8.80984 15.7026 8.73883 15.704 8.66678C15.7055 8.59474 15.6923 8.52315 15.6654 8.45631C15.6385 8.38946 15.5984 8.32874 15.5474 8.27779C15.4965 8.22684 15.4358 8.18671 15.3689 8.1598C15.3021 8.13289 15.2305 8.11976 15.1584 8.1212C15.0864 8.12264 15.0154 8.13862 14.9497 8.16818C14.884 8.19773 14.8249 8.24026 14.776 8.29321L11.913 11.1562L9.05002 8.29321C8.94848 8.19948 8.81461 8.14867 8.67644 8.15143C8.53828 8.15419 8.40655 8.21031 8.30883 8.30802C8.21112 8.40574 8.155 8.53747 8.15224 8.67564C8.14948 8.8138 8.20029 8.94767 8.29402 9.04921L11.157 11.9122L8.29402 14.7752C8.24283 14.824 8.20207 14.8826 8.17423 14.9476C8.14638 15.0126 8.13202 15.0825 8.13202 15.1532C8.13202 15.2239 8.14638 15.2939 8.17423 15.3588C8.20207 15.4238 8.24283 15.4825 8.29402 15.5312Z" fill="#A0A49D" stroke="#A0A49D" stroke-width="0.5"/>
</svg>
