<svg width="24" height="24" viewBox="0 0 24 24" fill="none" xmlns="http://www.w3.org/2000/svg">
<g clip-path="url(#clip0_869_2920)">
<mask id="mask0_869_2920" style="mask-type:luminance" maskUnits="userSpaceOnUse" x="4" y="3" width="15" height="18">
<path d="M18.9966 3.05859H4.09033V20.9485H18.9966V3.05859Z" fill="white"/>
</mask>
<g mask="url(#mask0_869_2920)">
<path d="M18.9315 13.3622C18.9437 14.7711 18.963 16.18 18.965 17.5888C18.966 18.2004 18.9174 18.812 18.9158 19.4237C18.9137 20.2845 18.2511 20.8217 17.4371 20.8393C15.5043 20.8808 13.5709 20.9171 11.6378 20.9114C10.0011 20.9067 8.36422 20.8482 6.72799 20.7962C6.27801 20.7739 5.8297 20.7265 5.38526 20.6544C4.86174 20.5789 4.3394 19.9749 4.30466 19.4211C4.2779 18.9952 4.25565 18.5685 4.24968 18.142C4.2183 15.8897 4.19015 13.6374 4.16524 11.3851C4.14014 9.27127 4.11583 7.15753 4.0923 5.04383C4.09087 4.62621 4.1994 4.21524 4.40754 3.8501C4.50036 3.66749 4.64385 3.51386 4.82175 3.40661C4.99966 3.29935 5.20486 3.24275 5.4141 3.24324C6.04218 3.22116 6.6715 3.21918 7.29839 3.17955C9.57579 3.03549 11.8529 3.14579 14.1302 3.16307C14.5995 3.16665 14.9516 3.32013 15.2957 3.63696C16.0192 4.30293 16.7919 4.91806 17.5403 5.55878C17.8252 5.80276 18.088 6.07186 18.3795 6.30726C18.6728 6.54394 18.7657 6.84733 18.7719 7.19609C18.7937 8.39701 18.8163 9.59795 18.8396 10.7988C18.8567 11.6535 18.8772 12.5081 18.8961 13.3627L18.9315 13.3622ZM13.913 4.02519C13.7016 4.00926 13.5262 3.98696 13.3505 3.98412C11.8565 3.95982 10.3623 3.93772 8.86811 3.91773C8.19268 3.90869 7.51712 3.90418 6.84162 3.9004C6.49843 3.89831 6.15442 3.88779 5.81213 3.90547C5.33569 3.93011 5.18905 4.06483 5.10321 4.52307C5.01789 4.95448 4.99788 5.39567 5.04379 5.83271C5.07198 6.0852 5.08614 6.33902 5.08616 6.59298C5.09337 10.6692 5.09877 14.7453 5.10237 18.8216C5.10014 18.9024 5.10342 18.9832 5.11217 19.0637C5.18565 19.5902 5.47005 19.9375 6.0835 19.9611C8.3602 20.0488 10.6368 20.0492 12.9141 20.0126C14.0762 19.9939 15.2385 19.9837 16.4007 19.9706C16.6849 19.9674 16.9698 19.9779 17.2535 19.9646C17.7478 19.9415 17.9949 19.6992 17.9898 19.2257C17.9843 18.7183 17.9455 18.2114 17.9367 17.704C17.9265 17.1153 17.9469 16.5259 17.9297 15.9374C17.8868 14.4603 17.8135 12.9839 17.7842 11.5066C17.7608 10.3177 17.7846 9.12792 17.7863 7.93855C17.7863 7.85004 17.7763 7.76147 17.771 7.67148C17.73 7.66297 17.6885 7.65727 17.6466 7.6544C16.9235 7.66858 16.2003 7.69076 15.4771 7.69488C15.252 7.69651 15.0275 7.67114 14.8089 7.61926C14.3638 7.51179 14.2243 7.34368 14.1772 6.8969C14.1349 6.49516 14.1072 6.09201 14.0703 5.68978C14.0212 5.15093 13.9687 4.61172 13.913 4.02519ZM15.1914 6.86111L17.3183 6.73129L14.8303 4.53086C14.9574 5.35116 15.0715 6.08718 15.1914 6.86111Z" fill="#A3A5A8"/>
<path d="M8.72378 6.91406C9.23323 6.91406 9.74294 6.91148 10.2522 6.91493C10.6119 6.91735 10.7419 7.01622 10.8202 7.36092C10.8539 7.51889 10.8723 7.67955 10.8751 7.84087C10.8859 8.21628 10.7295 8.40748 10.3542 8.45339C10.0253 8.4939 9.69329 8.51946 9.36203 8.52762C8.85224 8.54039 8.3419 8.52818 7.83196 8.53547C7.59512 8.53401 7.35847 8.5495 7.12394 8.58176C6.57303 8.66951 6.29738 8.22586 6.30985 7.8526C6.32029 7.66814 6.34182 7.48446 6.37433 7.30245C6.38327 7.20918 6.42385 7.12147 6.48969 7.05318C6.55554 6.98487 6.64287 6.93986 6.73791 6.92528C6.92315 6.88663 7.11149 6.86368 7.3008 6.85678C7.77489 6.84726 8.24933 6.85368 8.72369 6.85368L8.72378 6.91406ZM9.85721 7.65621C9.85997 7.62921 9.86269 7.60219 9.86537 7.57519C8.91304 7.60826 7.96063 7.43545 6.99027 7.56338V7.83771C7.10023 7.83156 7.19246 7.83035 7.28377 7.8205C7.50653 7.7964 7.72823 7.75556 7.95155 7.74448C8.46017 7.71937 8.96947 7.70959 9.47837 7.69049C9.6049 7.68522 9.73095 7.66782 9.85721 7.65621Z" fill="#A3A5A8"/>
<path d="M13.079 17.2454C12.2262 17.2454 11.3734 17.2476 10.5211 17.2437C10.3204 17.2464 10.1198 17.2336 9.92112 17.2055C9.70709 17.1714 9.59527 17.0475 9.59583 16.8983C9.59651 16.7543 9.71958 16.6148 9.92169 16.582C10.1895 16.534 10.4607 16.5053 10.7328 16.4962C12.3783 16.4671 14.0238 16.4446 15.6692 16.4287C15.8465 16.4277 16.0232 16.4479 16.1954 16.4886C16.412 16.5392 16.5087 16.6726 16.5025 16.8542C16.4955 17.0436 16.3638 17.1723 16.1339 17.207C16.0634 17.216 15.9925 17.2197 15.9214 17.2181C14.9738 17.2187 14.0264 17.2189 13.0788 17.2185L13.079 17.2454Z" fill="#A3A5A8"/>
<path d="M12.8756 14.3713C11.9279 14.3713 10.9801 14.3728 10.0324 14.3698C9.89041 14.3705 9.7487 14.3584 9.60909 14.3334C9.489 14.3107 9.38654 14.244 9.37399 14.1077C9.36013 13.9562 9.45822 13.8713 9.58599 13.8229C9.66442 13.7971 9.74635 13.7828 9.82908 13.7804C10.4549 13.7369 11.0803 13.6754 11.7069 13.6589C13.0569 13.6231 14.4074 13.6098 15.7576 13.591C15.8757 13.5893 15.9935 13.603 16.1079 13.6315C16.3459 13.6913 16.4491 13.8199 16.4392 14.0155C16.43 14.1962 16.3254 14.3155 16.1053 14.3609C15.9663 14.3878 15.8248 14.4008 15.6832 14.3997C14.7471 14.4029 13.8112 14.4014 12.8752 14.4014L12.8756 14.3713Z" fill="#A3A5A8"/>
<path d="M12.9768 11.6021C11.957 11.6021 10.9373 11.6021 9.91752 11.6021C9.84638 11.6021 9.77454 11.6135 9.70432 11.6069C9.58166 11.5954 9.46595 11.5643 9.4455 11.4183C9.43378 11.3604 9.44473 11.3002 9.47619 11.2497C9.50766 11.1992 9.55737 11.162 9.61557 11.1454C9.80445 11.0798 10.0004 11.0355 10.1996 11.013C11.724 10.8898 13.2539 10.8411 14.7834 10.8672C15.1866 10.8734 15.5899 10.8713 15.9931 10.874C16.0762 10.872 16.1592 10.8742 16.2419 10.881C16.5211 10.9123 16.7036 11.0768 16.6941 11.2822C16.6849 11.4784 16.5126 11.6245 16.2477 11.6503C16.1412 11.6588 16.0343 11.6602 15.9278 11.6546C15.2642 11.632 14.6007 11.6038 13.9371 11.5851C13.6172 11.5759 13.2969 11.5834 12.9768 11.5834V11.6021Z" fill="#A3A5A8"/>
<path d="M7.33523 18.2551C7.22177 18.2514 7.10856 18.2423 6.99605 18.2276C6.23341 18.0956 5.90589 17.434 6.2714 16.7694C6.64295 16.0935 7.1985 15.9053 7.92676 16.2094C8.40847 16.4104 8.6537 16.8288 8.57466 17.3147C8.48453 17.87 8.1448 18.1932 7.59708 18.2432C7.51506 18.2505 7.43229 18.2508 7.33523 18.2551ZM6.91881 17.3492C7.16841 17.5077 7.43186 17.4928 7.69353 17.412C7.83219 16.9232 7.60985 16.7259 7.03924 16.8027C6.91167 16.9558 6.83354 17.1241 6.91923 17.3495L6.91881 17.3492Z" fill="#A3A5A8"/>
<path d="M8.46807 11.289C8.46807 11.3005 8.46848 11.3121 8.46807 11.3236C8.45102 11.7343 8.36082 12.1203 7.92777 12.2974C7.44474 12.4948 6.96711 12.4551 6.55855 12.1155C6.20232 11.8193 6.09832 11.4387 6.22269 10.9896C6.38549 10.4023 6.61394 10.2132 7.26607 10.1743C7.83521 10.1405 8.23818 10.3597 8.4011 10.8133C8.44377 10.9681 8.47362 11.126 8.49039 11.2853L8.46807 11.289ZM6.89897 10.9141C6.74776 11.1893 6.74747 11.3488 6.89203 11.5222C7.06453 11.7289 7.31239 11.7745 7.66106 11.6639C7.81768 11.3701 7.8389 11.132 7.68533 10.9962C7.44732 10.7854 7.17068 10.8125 6.89897 10.9141Z" fill="#A3A5A8"/>
<path d="M7.30909 15.1917C7.14005 15.1657 7.02254 15.1537 6.90786 15.129C6.39682 15.0188 6.07907 14.6668 6.08974 14.2287C6.10291 13.7002 6.41332 13.3397 6.93317 13.2261C7.4092 13.1221 7.82284 13.2203 8.17075 13.5549C8.67139 14.0364 8.5285 14.7927 7.87746 15.0558C7.68563 15.1334 7.46959 15.1548 7.30909 15.1917ZM6.88367 13.8253C6.8029 14.0056 6.71034 14.1948 6.89323 14.333C7.00125 14.4146 7.17813 14.4304 7.32566 14.4361C7.47687 14.442 7.63896 14.4142 7.69415 14.2316C7.57441 13.8701 7.47805 13.8188 6.88367 13.8256V13.8253Z" fill="#A3A5A8"/>
</g>
</g>
<defs>
<clipPath id="clip0_869_2920">
<rect width="15" height="18" fill="white" transform="translate(4 3)"/>
</clipPath>
</defs>
</svg>
