<svg width="24" height="24" viewBox="0 0 24 24" fill="none" xmlns="http://www.w3.org/2000/svg">
<path d="M12.7334 21.25H11.5167C11.0683 21.2533 10.6345 21.0913 10.2979 20.7951C9.96127 20.4989 9.74549 20.0892 9.6917 19.644C9.28347 19.515 8.88668 19.3522 8.50545 19.1574C8.15247 19.4365 7.7088 19.5753 7.25967 19.5473C6.81054 19.5192 6.38761 19.3262 6.07213 19.0053L5.24479 18.1475C4.9239 17.832 4.73088 17.4091 4.70281 16.96C4.67474 16.5108 4.8136 16.0672 5.09271 15.7142C4.89939 15.3428 4.73663 14.9562 4.60604 14.5584C4.16091 14.5046 3.75116 14.2888 3.45495 13.9522C3.15874 13.6156 2.99681 13.1817 3.00005 12.7334V11.5167C2.99681 11.0683 3.15874 10.6345 3.45495 10.2979C3.75116 9.96127 4.16091 9.74549 4.60604 9.6917C4.73506 9.28347 4.89785 8.88668 5.09271 8.50545C4.8136 8.15247 4.67474 7.7088 4.70281 7.25967C4.73088 6.81054 4.9239 6.38761 5.24479 6.07213L6.10254 5.24479C6.41803 4.9239 6.84095 4.73088 7.29008 4.70281C7.73921 4.67474 8.18288 4.8136 8.53587 5.09271C8.9073 4.89939 9.29385 4.73663 9.6917 4.60604C9.74549 4.16091 9.96127 3.75116 10.2979 3.45495C10.6345 3.15874 11.0683 2.99681 11.5167 3.00005H12.7334C13.1817 2.99681 13.6156 3.15874 13.9522 3.45495C14.2888 3.75116 14.5046 4.16091 14.5584 4.60604C14.9666 4.73506 15.3634 4.89785 15.7446 5.09271C16.0976 4.8136 16.5413 4.67474 16.9904 4.70281C17.4395 4.73088 17.8624 4.9239 18.1779 5.24479L19.0053 6.10254C19.3262 6.41803 19.5192 6.84095 19.5473 7.29008C19.5753 7.73921 19.4365 8.18288 19.1574 8.53587C19.3522 8.9171 19.515 9.31388 19.644 9.72212C20.084 9.77528 20.4895 9.98669 20.785 10.3169C21.0806 10.6471 21.2458 11.0736 21.25 11.5167V12.7334C21.2533 13.1817 21.0913 13.6156 20.7951 13.9522C20.4989 14.2888 20.0892 14.5046 19.644 14.5584C19.515 14.9666 19.3522 15.3634 19.1574 15.7446C19.4365 16.0976 19.5753 16.5413 19.5473 16.9904C19.5192 17.4395 19.3262 17.8624 19.0053 18.1779L18.1475 19.0053C17.832 19.3262 17.4091 19.5192 16.96 19.5473C16.5108 19.5753 16.0672 19.4365 15.7142 19.1574C15.333 19.3522 14.9362 19.515 14.5279 19.644C14.4748 20.084 14.2634 20.4895 13.9332 20.785C13.6029 21.0806 13.1765 21.2458 12.7334 21.25ZM8.42029 17.8008C8.52972 17.7989 8.6374 17.8284 8.73054 17.8859C9.2684 18.2023 9.84788 18.4419 10.4521 18.5977C10.586 18.6322 10.7041 18.7112 10.787 18.8218C10.8699 18.9324 10.9127 19.0679 10.9084 19.206V19.425C10.9084 19.5864 10.9725 19.7411 11.0865 19.8552C11.2006 19.9693 11.3554 20.0333 11.5167 20.0333H12.7334C12.8947 20.0333 13.0494 19.9693 13.1635 19.8552C13.2776 19.7411 13.3417 19.5864 13.3417 19.425V19.1878C13.3373 19.0496 13.3801 18.9141 13.4631 18.8035C13.546 18.693 13.6641 18.6139 13.7979 18.5794C14.4022 18.4236 14.9817 18.184 15.5195 17.8677C15.6351 17.7996 15.77 17.7717 15.9031 17.7882C16.0362 17.8047 16.1601 17.8647 16.2556 17.9589L16.4259 18.1293C16.4825 18.1863 16.5498 18.2315 16.6239 18.2624C16.698 18.2933 16.7775 18.3092 16.8579 18.3092C16.9382 18.3092 17.0177 18.2933 17.0918 18.2624C17.1659 18.2315 17.2332 18.1863 17.2898 18.1293L18.1475 17.2715C18.2045 17.215 18.2498 17.1477 18.2807 17.0736C18.3116 16.9994 18.3275 16.9199 18.3275 16.8396C18.3275 16.7593 18.3116 16.6798 18.2807 16.6057C18.2498 16.5315 18.2045 16.4642 18.1475 16.4077L17.9772 16.2374C17.8829 16.1419 17.8229 16.018 17.8064 15.8848C17.7899 15.7517 17.8179 15.6169 17.8859 15.5013C18.2023 14.9634 18.4419 14.3839 18.5977 13.7797C18.6322 13.6458 18.7112 13.5277 18.8218 13.4448C18.9324 13.3619 19.0679 13.3191 19.206 13.3234H19.425C19.5864 13.3234 19.7411 13.2594 19.8552 13.1453C19.9693 13.0312 20.0333 12.8765 20.0333 12.7151V11.5167C20.0333 11.3554 19.9693 11.2006 19.8552 11.0865C19.7411 10.9725 19.5864 10.9084 19.425 10.9084H19.1878C19.0496 10.9127 18.9141 10.8699 18.8035 10.787C18.693 10.7041 18.6139 10.586 18.5794 10.4521C18.4236 9.84788 18.184 9.2684 17.8677 8.73054C17.7996 8.61495 17.7717 8.4801 17.7882 8.34698C17.8047 8.21386 17.8647 8.08992 17.9589 7.99445L18.1293 7.82412C18.1863 7.76757 18.2315 7.70029 18.2624 7.62616C18.2933 7.55203 18.3092 7.47251 18.3092 7.39221C18.3092 7.3119 18.2933 7.23239 18.2624 7.15826C18.2315 7.08413 18.1863 7.01684 18.1293 6.96029L17.2898 6.10254C17.2332 6.04552 17.1659 6.00027 17.0918 5.96938C17.0177 5.9385 16.9382 5.9226 16.8579 5.9226C16.7775 5.9226 16.698 5.9385 16.6239 5.96938C16.5498 6.00027 16.4825 6.04552 16.4259 6.10254L16.2556 6.27288C16.1601 6.36711 16.0362 6.42716 15.9031 6.44366C15.77 6.46016 15.6351 6.4322 15.5195 6.36412C14.9817 6.04777 14.4022 5.8082 13.7979 5.65238C13.6641 5.61789 13.546 5.53886 13.4631 5.42828C13.3801 5.31771 13.3373 5.18219 13.3417 5.04404V4.82504C13.3417 4.6637 13.2776 4.50897 13.1635 4.39489C13.0494 4.2808 12.8947 4.21671 12.7334 4.21671H11.5167C11.3554 4.21671 11.2006 4.2808 11.0865 4.39489C10.9725 4.50897 10.9084 4.6637 10.9084 4.82504V5.06229C10.9127 5.20044 10.8699 5.33596 10.787 5.44653C10.7041 5.5571 10.586 5.63614 10.4521 5.67063C9.84788 5.82645 9.2684 6.06602 8.73054 6.38237C8.61495 6.45045 8.4801 6.47841 8.34698 6.46191C8.21386 6.4454 8.08992 6.38536 7.99445 6.29112L7.82412 6.10254C7.76757 6.04552 7.70029 6.00027 7.62616 5.96938C7.55203 5.9385 7.47251 5.9226 7.39221 5.9226C7.3119 5.9226 7.23239 5.9385 7.15826 5.96938C7.08413 6.00027 7.01684 6.04552 6.96029 6.10254L6.10254 6.96029C6.04552 7.01684 6.00027 7.08413 5.96938 7.15826C5.9385 7.23239 5.9226 7.3119 5.9226 7.39221C5.9226 7.47251 5.9385 7.55203 5.96938 7.62616C6.00027 7.70029 6.04552 7.76757 6.10254 7.82412L6.27288 7.99445C6.36711 8.08992 6.42716 8.21386 6.44366 8.34698C6.46016 8.4801 6.4322 8.61495 6.36412 8.73054C6.04777 9.2684 5.8082 9.84788 5.65238 10.4521C5.61789 10.586 5.53886 10.7041 5.42828 10.787C5.31771 10.8699 5.18219 10.9127 5.04404 10.9084H4.82504C4.6637 10.9084 4.50897 10.9725 4.39489 11.0865C4.2808 11.2006 4.21671 11.3554 4.21671 11.5167V12.7334C4.21671 12.8947 4.2808 13.0494 4.39489 13.1635C4.50897 13.2776 4.6637 13.3417 4.82504 13.3417H5.06229C5.20044 13.3373 5.33596 13.3801 5.44653 13.4631C5.5571 13.546 5.63614 13.6641 5.67063 13.7979C5.82645 14.4022 6.06602 14.9817 6.38237 15.5195C6.45045 15.6351 6.47841 15.77 6.46191 15.9031C6.4454 16.0362 6.38536 16.1601 6.29112 16.2556L6.12079 16.4259C6.06377 16.4825 6.01852 16.5498 5.98763 16.6239C5.95675 16.698 5.94085 16.7775 5.94085 16.8579C5.94085 16.9382 5.95675 17.0177 5.98763 17.0918C6.01852 17.1659 6.06377 17.2332 6.12079 17.2898L6.96029 18.1475C7.01684 18.2045 7.08413 18.2498 7.15826 18.2807C7.23239 18.3116 7.3119 18.3275 7.39221 18.3275C7.47251 18.3275 7.55203 18.3116 7.62616 18.2807C7.70029 18.2498 7.76757 18.2045 7.82412 18.1475L7.99445 17.9772C8.10776 17.8648 8.2607 17.8014 8.42029 17.8008Z" fill="#A3A5A8"/>
<path d="M12.125 16.3834C11.2828 16.3834 10.4595 16.1336 9.75923 15.6657C9.05895 15.1978 8.51315 14.5327 8.19085 13.7546C7.86854 12.9765 7.78422 12.1203 7.94852 11.2943C8.11283 10.4682 8.5184 9.70947 9.11394 9.11394C9.70947 8.5184 10.4682 8.11283 11.2943 7.94852C12.1203 7.78422 12.9765 7.86854 13.7546 8.19085C14.5327 8.51315 15.1978 9.05895 15.6657 9.75923C16.1336 10.4595 16.3834 11.2828 16.3834 12.125C16.3834 13.2544 15.9347 14.3375 15.1361 15.1361C14.3375 15.9347 13.2544 16.3834 12.125 16.3834ZM12.125 9.08337C11.5234 9.08337 10.9354 9.26176 10.4352 9.59598C9.93497 9.9302 9.54511 10.4052 9.3149 10.961C9.08468 11.5168 9.02445 12.1284 9.14181 12.7184C9.25917 13.3084 9.54886 13.8504 9.97425 14.2758C10.3996 14.7012 10.9416 14.9909 11.5316 15.1082C12.1217 15.2256 12.7332 15.1654 13.289 14.9352C13.8448 14.7049 14.3199 14.3151 14.6541 13.8149C14.9883 13.3147 15.1667 12.7266 15.1667 12.125C15.1667 11.3183 14.8462 10.5447 14.2758 9.97425C13.7054 9.40383 12.9317 9.08337 12.125 9.08337Z" fill="#A3A5A8"/>
</svg>
