<svg width="24" height="24" viewBox="0 0 24 24" fill="none" xmlns="http://www.w3.org/2000/svg">
<path d="M19.2593 18.4405C19.2593 19.2812 18.5761 19.9903 17.7353 19.9903H5.54034C4.69961 19.9903 4.01633 19.2812 4.01633 18.4405V6.24553C4.01633 5.4048 4.69961 4.74633 5.54034 4.74633H12.6537V3.73096H5.54034C4.13943 3.73096 3 4.84558 3 6.24649V18.4405C3 19.8414 4.13943 21.0057 5.54034 21.0057H17.7344C19.1353 21.0057 20.2747 19.8405 20.2747 18.4405V11.352H19.2584L19.2593 18.4405Z" fill="#A0A49D" stroke="#A0A49D" stroke-width="0.5"/>
<path d="M20.4046 3.57616C19.6373 2.80795 18.2984 2.80795 17.5302 3.57616L10.7137 10.3927C10.6488 10.4576 10.602 10.5397 10.5801 10.6284L9.86243 13.5018C9.81949 13.6745 9.87006 13.8578 9.99603 13.9847C10.0924 14.0811 10.2222 14.1336 10.3548 14.1336C10.3959 14.1336 10.4369 14.1288 10.478 14.1183L13.3523 13.3997C13.442 13.3778 13.5231 13.331 13.588 13.2661L20.4046 6.44955C20.7882 6.06592 21 5.55537 21 5.01238C21 4.46938 20.7891 3.95979 20.4046 3.57616ZM12.9696 12.4483L11.0534 12.9273L11.5325 11.0111L17.1714 5.37215L18.6086 6.80932L12.9696 12.4483ZM19.686 5.73096L19.3272 6.08978L17.89 4.65261L18.2488 4.29379C18.6324 3.91016 19.3023 3.91016 19.686 4.29379C19.8778 4.4856 19.9837 4.7404 19.9837 5.01238C19.9837 5.28435 19.8778 5.53915 19.686 5.73096Z" fill="#A0A49D" stroke="#A0A49D" stroke-width="0.5"/>
</svg>
