<svg width="24" height="24" viewBox="0 0 24 24" fill="none" xmlns="http://www.w3.org/2000/svg">
<path d="M19.8417 7.60031C19.8414 7.52621 19.8268 7.45287 19.7987 7.38431C19.7996 7.36765 19.7996 7.35096 19.7987 7.33431L18.3587 4.45431C18.305 4.31908 18.2115 4.20332 18.0907 4.12228C17.9698 4.04123 17.8272 3.99871 17.6817 4.00031H5.44173C5.27729 3.9955 5.11616 4.04716 4.98516 4.14669C4.85416 4.24621 4.76119 4.38759 4.72173 4.54731L4.00273 7.42731C3.99909 7.4515 3.99909 7.47611 4.00273 7.50031C3.99939 7.53356 3.99939 7.56706 4.00273 7.60031V19.1203C4.00273 19.3113 4.07859 19.4944 4.21362 19.6294C4.34864 19.7644 4.53178 19.8403 4.72273 19.8403H19.1227C19.3137 19.8403 19.4968 19.7644 19.6319 19.6294C19.7669 19.4944 19.8427 19.3113 19.8427 19.1203L19.8417 7.60031ZM6.00273 5.44031H17.2357L17.9557 6.88031H5.64373L6.00273 5.44031ZM18.4027 18.4003H5.44173V8.32031H18.4027V18.4003Z" fill="#A0A49D"/>
<path d="M11.4828 16.5096C11.5968 16.5844 11.7303 16.6243 11.8668 16.6243C12.0032 16.6243 12.1367 16.5844 12.2508 16.5096L14.3508 15.1096C14.439 15.065 14.5168 15.0022 14.579 14.9254C14.6412 14.8486 14.6865 14.7595 14.7118 14.664C14.7371 14.5684 14.7419 14.4686 14.7258 14.3711C14.7098 14.2735 14.6732 14.1805 14.6186 14.0981C14.564 14.0157 14.4926 13.9458 14.409 13.893C14.3255 13.8402 14.2317 13.8057 14.1338 13.7918C14.036 13.7778 13.9363 13.7848 13.8413 13.8121C13.7463 13.8395 13.6582 13.8867 13.5828 13.9506L12.5698 14.6506V10.3436C12.5698 10.1579 12.496 9.97986 12.3647 9.84858C12.2335 9.7173 12.0554 9.64355 11.8698 9.64355C11.6841 9.64355 11.5061 9.7173 11.3748 9.84858C11.2435 9.97986 11.1698 10.1579 11.1698 10.3436V14.6236L10.1568 13.9236C10.0037 13.8462 9.82765 13.8278 9.66191 13.8717C9.49617 13.9156 9.3523 14.0188 9.2576 14.1617C9.16289 14.3046 9.12393 14.4773 9.14811 14.6471C9.17229 14.8168 9.25792 14.9718 9.38876 15.0826L11.4828 16.5096Z" fill="#A0A49D"/>
</svg>
