<svg width="24" height="24" viewBox="0 0 24 24" fill="none" xmlns="http://www.w3.org/2000/svg">
<path d="M3.6087 3.72511L13.7207 6.25044C14.3401 6.43209 14.887 6.80351 15.2842 7.31238C15.6814 7.82125 15.909 8.44193 15.9348 9.08696V18.2174C15.9514 18.4951 15.9007 18.7726 15.7871 19.0265C15.6735 19.2804 15.5003 19.5032 15.2823 19.6758C15.0642 19.8485 14.8077 19.966 14.5345 20.0184C14.2613 20.0707 13.9795 20.0564 13.713 19.9765L5.22174 17.98C4.60147 17.8087 4.05181 17.4445 3.65237 16.94C3.25294 16.4355 3.02445 15.8169 3 15.1739V5.28261C3.00181 4.67778 3.24287 4.09824 3.67056 3.67056C4.09824 3.24287 4.67778 3.00181 5.28261 3H18.2174C18.8222 3.00181 19.4018 3.24287 19.8294 3.67056C20.2571 4.09824 20.4982 4.67778 20.5 5.28261V13.6522C20.4984 14.2571 20.2574 14.8367 19.8297 15.2644C19.4019 15.6922 18.8223 15.9332 18.2174 15.9348H15.9348" stroke="#FF9A23" stroke-width="1.4" stroke-linecap="round" stroke-linejoin="round"/>
<path d="M9.84766 5.28259H17.4564" stroke="#FF9A23" stroke-width="1.4" stroke-linecap="round" stroke-linejoin="round"/>
<path d="M12.511 14.413C13.3514 14.413 14.0327 13.7317 14.0327 12.8912C14.0327 12.0508 13.3514 11.3695 12.511 11.3695C11.6706 11.3695 10.9893 12.0508 10.9893 12.8912C10.9893 13.7317 11.6706 14.413 12.511 14.413Z" stroke="#FF9A23" stroke-width="1.4" stroke-linecap="round" stroke-linejoin="round"/>
<path d="M15.9346 9.08691H17.4563" stroke="#FF9A23" stroke-width="1.4" stroke-linecap="round" stroke-linejoin="round"/>
</svg>
