<svg width="24" height="24" viewBox="0 0 24 24" fill="none" xmlns="http://www.w3.org/2000/svg">
<path d="M12.5 8.2726C12.1872 8.27751 11.8767 8.32747 11.578 8.42095C11.7161 8.66524 11.7897 8.94105 11.7917 9.22206C11.7917 9.44026 11.7489 9.65633 11.6658 9.85792C11.5828 10.0595 11.461 10.2427 11.3076 10.397C11.1541 10.5513 10.9719 10.6737 10.7714 10.7572C10.5708 10.8407 10.3559 10.8836 10.1389 10.8836C9.85935 10.8817 9.58499 10.8077 9.342 10.6688C9.15028 11.3372 9.17263 12.0494 9.40587 12.7043C9.6391 13.3593 10.0714 13.9238 10.6415 14.3181C11.2117 14.7123 11.8907 14.9162 12.5826 14.9008C13.2744 14.8855 13.9438 14.6518 14.4961 14.2327C15.0485 13.8136 15.4556 13.2304 15.6599 12.5658C15.8642 11.9011 15.8554 11.1887 15.6346 10.5294C15.4138 9.87016 14.9922 9.29743 14.4296 8.89238C13.867 8.48733 13.192 8.2705 12.5 8.2726ZM20.8973 11.1625C19.2967 8.02306 16.1281 5.89893 12.5 5.89893C8.87184 5.89893 5.70234 8.02455 4.10269 11.1628C4.03518 11.2971 4 11.4454 4 11.5959C4 11.7463 4.03518 11.8947 4.10269 12.0289C5.70323 15.1684 8.87184 17.2925 12.5 17.2925C16.1281 17.2925 19.2976 15.1669 20.8973 12.0286C20.9648 11.8944 21 11.746 21 11.5956C21 11.4451 20.9648 11.2968 20.8973 11.1625ZM12.5 15.8683C9.58844 15.8683 6.9192 14.2364 5.47774 11.5957C6.9192 8.95503 9.58814 7.32313 12.5 7.32313C15.4118 7.32313 18.0808 8.95503 19.5222 11.5957C18.0811 14.2364 15.4118 15.8683 12.5 15.8683Z" fill="#FF5733"/>
</svg>
