<svg width="24" height="24" viewBox="0 0 24 24" fill="none" xmlns="http://www.w3.org/2000/svg">
<path d="M3.95633 17.389C4.18464 17.389 4.36402 17.2096 4.36402 16.9813V12.7168L6.82651 11.3959V14.8939C6.82651 15.1222 7.00589 15.3016 7.2342 15.3016C7.46251 15.3016 7.6419 15.1222 7.6419 14.8939V10.0342L3.55679 12.2276V16.9813C3.54863 17.2015 3.72802 17.389 3.95633 17.389Z" fill="#A3A5A8" stroke="#A3A5A8" stroke-width="0.2"/>
<path d="M8.86497 14.2984C9.09328 14.2984 9.27267 14.119 9.27267 13.8907V6.68264L11.7352 5.36171V17.087C11.7352 17.3154 11.9145 17.4947 12.1428 17.4947C12.3712 17.4947 12.5505 17.3154 12.5505 17.087V4L8.45728 6.19341V13.8907C8.45728 14.1109 8.63666 14.2984 8.86497 14.2984Z" fill="#A3A5A8" stroke="#A3A5A8" stroke-width="0.2"/>
<path d="M13.7736 16.9645C14.0019 16.9645 14.1813 16.7852 14.1813 16.5568V8.78616L16.6438 7.46522V14.5021C16.6438 14.7304 16.8231 14.9098 17.0515 14.9098C17.2798 14.9098 17.4592 14.7304 17.4592 14.5021V6.10352L13.374 8.29692V16.5568C13.3659 16.7852 13.5534 16.9645 13.7736 16.9645Z" fill="#A3A5A8" stroke="#A3A5A8" stroke-width="0.2"/>
<path d="M21.9439 13.7439C21.8705 13.6216 21.74 13.54 21.5933 13.54H18.7802C18.6334 13.54 18.5029 13.6216 18.4296 13.7439C18.3562 13.8662 18.3562 14.0211 18.4296 14.1516L18.9351 15.0241L16.6928 16.3858C16.3503 16.5978 16.016 16.8016 15.6735 17.0136C15.4289 17.1685 15.1843 17.3153 14.9478 17.4702C14.3118 17.8779 13.7492 18.2449 13.2274 18.6036C12.9583 18.783 12.6973 18.9706 12.4283 19.1499L8.77531 15.5785L2.18694 19.7696C1.9994 19.8919 1.94232 20.1447 2.06463 20.3323C2.14617 20.4546 2.27663 20.5198 2.4071 20.5198C2.48048 20.5198 2.55387 20.4953 2.62725 20.4546L8.66116 16.6141L12.3467 20.2099L12.8441 19.8512C13.1214 19.6555 13.3986 19.4598 13.684 19.2722C14.1977 18.9216 14.7521 18.5629 15.3881 18.1552C15.6246 18.0002 15.8692 17.8535 16.1057 17.6985C16.44 17.4865 16.7825 17.2827 17.1168 17.0707L19.1797 15.8068L19.3428 15.709L19.8402 16.5733C19.9136 16.6956 20.044 16.7771 20.1908 16.7771C20.3376 16.7771 20.468 16.6956 20.5414 16.5733L21.9521 14.1353C22.0173 14.0293 22.0173 13.8743 21.9439 13.7439ZM20.1826 15.5704L19.4814 14.3554H20.8839L20.1826 15.5704Z" fill="#A3A5A8" stroke="#A3A5A8" stroke-width="0.2"/>
</svg>
