<svg width="24" height="24" viewBox="0 0 24 24" fill="none" xmlns="http://www.w3.org/2000/svg">
<path d="M5.77734 4.44434H18.2218V18.4099C18.2218 19.2402 17.2684 19.7089 16.611 19.2017L15.669 18.4751C15.3342 18.2168 14.8732 18.197 14.5175 18.4257L13.0811 19.3491C12.4223 19.7726 11.5769 19.7726 10.9181 19.3491L9.48165 18.4257C9.12596 18.197 8.6649 18.2168 8.33009 18.4751L7.38815 19.2017C6.73072 19.7089 5.77734 19.2402 5.77734 18.4099V4.44434Z" stroke="#4C4D4B" stroke-width="1.2"/>
<path d="M9.33398 9.77794H12.0007" stroke="#4C4D4B" stroke-width="1.2" stroke-linecap="round" stroke-linejoin="round"/>
<path d="M4 4.44444H20" stroke="#4C4D4B" stroke-width="1.2" stroke-linecap="round" stroke-linejoin="round"/>
<path d="M9.33398 13.3331H12.0007" stroke="#4C4D4B" stroke-width="1.2" stroke-linecap="round" stroke-linejoin="round"/>
<path d="M14.666 9.77794H15.1105" stroke="#4C4D4B" stroke-width="1.2" stroke-linecap="round" stroke-linejoin="round"/>
<path d="M14.666 13.3331H15.1105" stroke="#4C4D4B" stroke-width="1.2" stroke-linecap="round" stroke-linejoin="round"/>
</svg>
