<svg width="56" height="56" viewBox="0 0 56 56" fill="none" xmlns="http://www.w3.org/2000/svg">
<path d="M7.3754 8.83694L32.9924 15.2344C34.5617 15.6946 35.947 16.6356 36.9533 17.9247C37.9596 19.2138 38.5361 20.7862 38.6015 22.4203V45.5507C38.6435 46.2541 38.5152 46.9573 38.2275 47.6005C37.9397 48.2438 37.5009 48.808 36.9485 49.2455C36.396 49.6829 35.7461 49.9806 35.0541 50.1132C34.362 50.2458 33.6481 50.2094 32.9731 50.0072L11.4618 44.9493C9.89043 44.5154 8.49797 43.5927 7.48606 42.3146C6.47414 41.0365 5.89531 39.4696 5.83337 37.8406V12.7826C5.83795 11.2504 6.44866 9.7822 7.53212 8.69874C8.61558 7.61528 10.0837 7.00458 11.616 7H44.3841C45.9163 7.00458 47.3845 7.61528 48.468 8.69874C49.5514 9.7822 50.1621 11.2504 50.1667 12.7826V33.9855C50.1626 35.5179 49.5521 36.9864 48.4685 38.0699C47.385 39.1535 45.9165 39.764 44.3841 39.7681H38.6015" stroke="#30342C" stroke-width="1.5" stroke-linecap="round" stroke-linejoin="round"/>
<path d="M23.1812 12.7826H42.4565" stroke="#30342C" stroke-width="1.5" stroke-linecap="round" stroke-linejoin="round"/>
<path d="M29.9276 35.9129C32.0567 35.9129 33.7827 34.1869 33.7827 32.0578C33.7827 29.9287 32.0567 28.2028 29.9276 28.2028C27.7985 28.2028 26.0725 29.9287 26.0725 32.0578C26.0725 34.1869 27.7985 35.9129 29.9276 35.9129Z" stroke="#30342C" stroke-width="1.5" stroke-linecap="round" stroke-linejoin="round"/>
<path d="M38.6013 22.42H42.4564" stroke="#30342C" stroke-width="1.5" stroke-linecap="round" stroke-linejoin="round"/>
</svg>
