<svg width="17" height="16" viewBox="0 0 17 16" fill="none" xmlns="http://www.w3.org/2000/svg">
<path d="M14.231 0.457001C11.203 2.72657 8.48822 5.38626 6.157 8.367C5.657 8.989 5.333 9.333 5.288 9.29601C4.719 8.86901 1.266 6.442 1.221 6.442C0.775667 6.8084 0.366767 7.21697 0 7.662C0 7.699 0.486999 8.38901 1.071 9.19701C2.509 11.167 4.104 13.474 4.786 14.552C4.95452 14.8631 5.16074 15.1523 5.4 15.413C5.43 15.398 5.939 14.582 6.538 13.593C9.13295 8.99837 12.2767 4.73611 15.9 0.899994L16.814 0H14.868L14.231 0.457001Z" fill="#41C946"/>
</svg>
