<svg width="56" height="56" viewBox="0 0 56 56" fill="none" xmlns="http://www.w3.org/2000/svg">
<path d="M28.1499 16.4764C25.8411 16.4764 23.5842 17.161 21.6645 18.4437C19.7448 19.7264 18.2487 21.5495 17.3651 23.6825C16.4816 25.8156 16.2504 28.1627 16.7008 30.4271C17.1513 32.6916 18.263 34.7715 19.8955 36.4041C21.5281 38.0366 23.6081 39.1483 25.8725 39.5988C28.1369 40.0492 30.484 39.8181 32.6171 38.9345C34.7501 38.051 36.5732 36.5548 37.8559 34.6352C39.1386 32.7155 39.8232 30.4585 39.8232 28.1498C39.8211 25.0544 38.5906 22.0866 36.4018 19.8978C34.2131 17.709 31.2452 16.4785 28.1499 16.4764ZM28.1499 37.7839C26.2444 37.7839 24.3817 37.2189 22.7974 36.1602C21.2131 35.1016 19.9783 33.597 19.2491 31.8366C18.5199 30.0761 18.3291 28.1391 18.7008 26.2703C19.0726 24.4014 19.9902 22.6848 21.3375 21.3374C22.6849 19.9901 24.4015 19.0725 26.2704 18.7007C28.1392 18.329 30.0763 18.5198 31.8367 19.249C33.5971 19.9782 35.1017 21.213 36.1603 22.7973C37.219 24.3816 37.784 26.2443 37.784 28.1498C37.7734 30.7016 36.755 33.146 34.9505 34.9504C33.1461 36.7549 30.7017 37.7733 28.1499 37.7839Z" fill="#30342C"/>
<path d="M48.0443 22.8912C47.7089 22.8853 47.3837 22.7745 47.1144 22.5744C46.8451 22.3742 46.6453 22.0948 46.543 21.7752C46.2937 21.0508 45.9987 20.3429 45.6599 19.6557C45.5045 19.3552 45.4481 19.0134 45.4986 18.6789C45.549 18.3444 45.7038 18.0345 45.9409 17.7931C46.6091 17.1195 46.9841 16.209 46.9841 15.2601C46.9841 14.3113 46.6091 13.4008 45.9409 12.7272L43.5725 10.3668C42.8985 9.69614 41.9863 9.31964 41.0355 9.31964C40.0847 9.31964 39.1725 9.69614 38.4985 10.3668C38.2569 10.6008 37.9479 10.7531 37.6152 10.802C37.2825 10.851 36.9427 10.7943 36.644 10.6398C35.9555 10.3038 35.2478 10.0089 34.5244 9.75666C34.2049 9.65437 33.9254 9.45456 33.7253 9.18529C33.5251 8.91601 33.4144 8.59081 33.4085 8.25534C33.4085 7.30355 33.0304 6.39075 32.3574 5.71773C31.6844 5.04473 30.7716 4.66663 29.8198 4.66663H26.48C25.5282 4.66663 24.6153 5.04473 23.9423 5.71773C23.2693 6.39075 22.8912 7.30355 22.8912 8.25534C22.8854 8.59081 22.7746 8.91601 22.5744 9.18529C22.3743 9.45456 22.0948 9.65437 21.7753 9.75666C21.0519 10.0089 20.3442 10.3038 19.6558 10.6398C19.3553 10.7951 19.0134 10.8516 18.679 10.8011C18.3445 10.7507 18.0345 10.5959 17.7932 10.3588C17.1195 9.69055 16.2091 9.31559 15.2602 9.31559C14.3113 9.31559 13.4009 9.69055 12.7272 10.3588L10.3669 12.7272C9.6962 13.4012 9.3197 14.3134 9.3197 15.2642C9.3197 16.215 9.6962 17.1272 10.3669 17.8012C10.6009 18.0427 10.7531 18.3517 10.8021 18.6844C10.8511 19.0172 10.7943 19.357 10.6398 19.6557C10.3038 20.3442 10.0089 21.0519 9.75672 21.7752C9.65443 22.0948 9.45462 22.3742 9.18535 22.5744C8.91607 22.7745 8.59087 22.8853 8.2554 22.8912C7.30361 22.8912 6.39081 23.2692 5.71779 23.9423C5.04479 24.6153 4.66669 25.5281 4.66669 26.4799V29.8197C4.66669 30.7715 5.04479 31.6843 5.71779 32.3574C6.39081 33.0304 7.30361 33.4084 8.2554 33.4084C8.59087 33.4143 8.91607 33.5251 9.18535 33.7252C9.45462 33.9254 9.65443 34.2049 9.75672 34.5244C10.0089 35.2477 10.3038 35.9555 10.6398 36.6439C10.7952 36.9444 10.8516 37.2863 10.8011 37.6207C10.7507 37.9552 10.5959 38.2652 10.3588 38.5065C9.69061 39.1802 9.31565 40.0906 9.31565 41.0395C9.31565 41.9883 9.69061 42.8988 10.3588 43.5724L12.7192 45.9328C13.3922 46.6054 14.3047 46.9833 15.2562 46.9833C16.2076 46.9833 17.1202 46.6054 17.7932 45.9328C18.0348 45.6988 18.3438 45.5465 18.6765 45.4976C19.0092 45.4486 19.349 45.5054 19.6478 45.6598C20.3362 45.9958 21.0439 46.2908 21.7673 46.543C22.0868 46.6452 22.3663 46.8451 22.5664 47.1143C22.7666 47.3836 22.8774 47.7088 22.8832 48.0443C22.8832 48.996 23.2613 49.9089 23.9343 50.5819C24.6073 51.2549 25.5202 51.633 26.4719 51.633H29.8118C30.7635 51.633 31.6764 51.2549 32.3494 50.5819C33.0224 49.9089 33.4005 48.996 33.4005 48.0443C33.4063 47.7088 33.5171 47.3836 33.7173 47.1143C33.9174 46.8451 34.1969 46.6452 34.5164 46.543C35.2398 46.2908 35.9475 45.9958 36.6359 45.6598C36.9364 45.5045 37.2783 45.448 37.6127 45.4985C37.9472 45.549 38.2572 45.7037 38.4985 45.9408C39.1711 46.611 40.082 46.9873 41.0315 46.9873C41.981 46.9873 42.8918 46.611 43.5645 45.9408L45.9248 43.5805C46.5955 42.9065 46.972 41.9943 46.972 41.0435C46.972 40.0927 46.5955 39.1805 45.9248 38.5065C45.6908 38.2649 45.5386 37.9559 45.4896 37.6232C45.4406 37.2904 45.4974 36.9507 45.6519 36.6519C45.9907 35.9648 46.2856 35.2568 46.535 34.5324C46.6373 34.2129 46.8371 33.9334 47.1064 33.7333C47.3756 33.5331 47.7009 33.4223 48.0363 33.4165C48.9881 33.4165 49.9009 33.0384 50.5739 32.3654C51.247 31.6924 51.625 30.7795 51.625 29.8278V26.4799C51.625 25.5295 51.248 24.6179 50.5767 23.9452C49.9055 23.2724 48.9947 22.8933 48.0443 22.8912ZM49.65 29.8197C49.65 30.2456 49.4809 30.654 49.1797 30.9551C48.8786 31.2563 48.4702 31.4254 48.0443 31.4254C47.2913 31.4322 46.5592 31.6733 45.9492 32.1148C45.3392 32.5565 44.8819 33.1769 44.6403 33.8901C44.4151 34.5415 44.1469 35.1771 43.8374 35.7929C43.5033 36.4695 43.3879 37.2333 43.5074 37.9785C43.6268 38.7237 43.975 39.4132 44.5038 39.9516C44.7932 40.251 44.955 40.6511 44.955 41.0676C44.955 41.484 44.7932 41.8841 44.5038 42.1835L42.1515 44.5359C41.8517 44.8277 41.4499 44.9909 41.0315 44.9909C40.6131 44.9909 40.2113 44.8277 39.9115 44.5359C39.3735 44.009 38.6849 43.6626 37.9412 43.5447C37.1974 43.4267 36.4355 43.5431 35.7608 43.8775C35.145 44.1869 34.5094 44.4552 33.8581 44.6804C33.1448 44.9219 32.5244 45.3793 32.0828 45.9892C31.6412 46.5992 31.4002 47.3314 31.3934 48.0844C31.3934 48.5103 31.2242 48.9187 30.923 49.2198C30.6219 49.521 30.2135 49.6901 29.7877 49.6901H26.48C26.0541 49.6901 25.6457 49.521 25.3446 49.2198C25.0434 48.9187 24.8743 48.5103 24.8743 48.0844C24.8674 47.3314 24.6264 46.5992 24.1849 45.9892C23.7432 45.3793 23.1228 44.9219 22.4095 44.6804C21.7582 44.4552 21.1226 44.1869 20.5068 43.8775C20.0062 43.6341 19.4577 43.5052 18.9011 43.5002C17.9509 43.5001 17.0392 43.8752 16.3641 44.5439C16.0647 44.8333 15.6646 44.9951 15.2482 44.9951C14.8317 44.9951 14.4316 44.8333 14.1322 44.5439L11.7799 42.1915C11.488 41.8918 11.3248 41.4899 11.3248 41.0716C11.3248 40.6532 11.488 40.2514 11.7799 39.9516C12.3067 39.4135 12.6531 38.7249 12.7711 37.9813C12.889 37.2375 12.7727 36.4755 12.4382 35.8009C12.1288 35.1851 11.8606 34.5495 11.6354 33.8982C11.3938 33.1849 10.9364 32.5645 10.3265 32.1228C9.71653 31.6813 8.98431 31.4403 8.23131 31.4334C7.80546 31.4334 7.39705 31.2643 7.09592 30.9631C6.79479 30.662 6.62563 30.2536 6.62563 29.8278V26.4799C6.62563 26.0541 6.79479 25.6457 7.09592 25.3445C7.39705 25.0434 7.80546 24.8742 8.23131 24.8742C8.98431 24.8674 9.71653 24.6264 10.3265 24.1848C10.9364 23.7432 11.3938 23.1227 11.6354 22.4095C11.8606 21.7581 12.1288 21.1225 12.4382 20.5067C12.7724 19.8301 12.8877 19.0663 12.7683 18.3211C12.6489 17.576 12.3007 16.8864 11.7719 16.348C11.4824 16.0486 11.3207 15.6485 11.3207 15.232C11.3207 14.8156 11.4824 14.4155 11.7719 14.1161L14.1242 11.7638C14.424 11.4719 14.8258 11.3087 15.2442 11.3087C15.6625 11.3087 16.0643 11.4719 16.3641 11.7638C16.9022 12.2906 17.5908 12.637 18.3345 12.755C19.0782 12.8729 19.8402 12.7566 20.5148 12.4221C21.1306 12.1127 21.7662 11.8445 22.4176 11.6193C23.1349 11.3896 23.763 10.9423 24.2147 10.3395C24.6664 9.73673 24.9194 9.00833 24.9385 8.25534C24.9385 7.82949 25.1077 7.42107 25.4088 7.11995C25.7099 6.81882 26.1184 6.64965 26.5442 6.64965H29.884C30.3098 6.64965 30.7182 6.81882 31.0194 7.11995C31.3205 7.42107 31.4897 7.82949 31.4897 8.25534C31.4965 9.00833 31.7375 9.74055 32.1791 10.3505C32.6207 10.9604 33.2412 11.4178 33.9544 11.6594C34.6058 11.8846 35.2414 12.1528 35.8572 12.4622C36.5338 12.7964 37.2976 12.9118 38.0428 12.7923C38.7879 12.6729 39.4775 12.3247 40.0159 11.7959C40.3153 11.5065 40.7154 11.3447 41.1318 11.3447C41.5483 11.3447 41.9484 11.5065 42.2478 11.7959L44.6001 14.1482C44.892 14.448 45.0552 14.8498 45.0552 15.2682C45.0552 15.6865 44.892 16.0884 44.6001 16.3881C44.0733 16.9262 43.7269 17.6148 43.6089 18.3585C43.491 19.1022 43.6073 19.8642 43.9418 20.5388C44.2512 21.1546 44.5194 21.7902 44.7446 22.4416C44.9747 23.1444 45.4141 23.7602 46.0037 24.2064C46.5934 24.6526 47.3054 24.9081 48.0443 24.9384C48.4702 24.9384 48.8786 25.1076 49.1797 25.4087C49.4809 25.7099 49.65 26.1183 49.65 26.5441V29.8197Z" fill="#30342C"/>
</svg>
