<svg width="56" height="56" viewBox="0 0 56 56" fill="none" xmlns="http://www.w3.org/2000/svg">
<path d="M51.3333 30.1389C51.3333 27.4585 49.1526 25.2778 46.4722 25.2778H44.5277V22.3612C44.5277 13.2475 37.1136 5.83337 28 5.83337C18.8863 5.83337 11.4722 13.2475 11.4722 22.3612V25.2778H9.52774C6.84732 25.2778 4.66663 27.4585 4.66663 30.1389V35.9723C4.66663 38.6527 6.84732 40.8334 9.52774 40.8334H15.3611V25.2778H13.4166V22.3612C13.4166 14.3199 19.9587 7.77782 28 7.77782C36.0412 7.77782 42.5833 14.3199 42.5833 22.3612V25.2778H40.6388V40.8334H42.5833V45.6945C42.5833 47.3025 41.2747 48.6112 39.6666 48.6112H29.9444V50.5556H39.6666C42.347 50.5556 44.5277 48.3749 44.5277 45.6945V40.8334H46.4722C49.1526 40.8334 51.3333 38.6527 51.3333 35.9723V30.1389ZM13.4166 38.8889H9.52774C7.91968 38.8889 6.61107 37.5803 6.61107 35.9723V30.1389C6.61107 28.5309 7.91968 27.2223 9.52774 27.2223H13.4166V38.8889ZM49.3888 35.9723C49.3888 37.5803 48.0802 38.8889 46.4722 38.8889H42.5833V27.2223H46.4722C48.0802 27.2223 49.3888 28.5309 49.3888 30.1389V35.9723Z" fill="#30342C"/>
</svg>
