<svg width="16" height="16" viewBox="0 0 16 16" fill="none" xmlns="http://www.w3.org/2000/svg">
<path d="M14.9405 7.19526L8.12253 0.982264C7.97934 0.850711 7.79198 0.77771 7.59753 0.77771C7.40309 0.77771 7.21572 0.850711 7.07253 0.982264L0.254534 7.19526C0.138282 7.30112 0.0567795 7.43966 0.0207411 7.5927C-0.0152974 7.74574 -0.00418512 7.9061 0.052617 8.0527C0.109419 8.19931 0.209253 8.32529 0.338994 8.4141C0.468735 8.5029 0.622311 8.55037 0.779534 8.55026H1.86853V14.7753C1.86853 14.8938 1.91563 15.0075 1.99946 15.0913C2.08329 15.1752 2.19698 15.2223 2.31553 15.2223H6.05253C6.17109 15.2223 6.28478 15.1752 6.36861 15.0913C6.45244 15.0075 6.49953 14.8938 6.49953 14.7753V10.9953H8.69953V14.7743C8.69953 14.8928 8.74663 15.0065 8.83046 15.0903C8.91429 15.1742 9.02798 15.2213 9.14653 15.2213H12.8795C12.9981 15.2213 13.1118 15.1742 13.1956 15.0903C13.2794 15.0065 13.3265 14.8928 13.3265 14.7743V8.55026H14.4155C14.5728 8.55037 14.7263 8.5029 14.8561 8.4141C14.9858 8.32529 15.0856 8.19931 15.1425 8.0527C15.1993 7.9061 15.2104 7.74574 15.1743 7.5927C15.1383 7.43966 15.0568 7.30112 14.9405 7.19526Z" fill="#41C946"/>
<path d="M13.2095 1.67029H10.2095L13.6575 4.80529V2.11729C13.6575 2.0585 13.6459 2.0003 13.6234 1.946C13.6008 1.8917 13.5678 1.84238 13.5262 1.80086C13.4846 1.75934 13.4352 1.72643 13.3808 1.70403C13.3265 1.68162 13.2683 1.67016 13.2095 1.67029Z" fill="#41C946"/>
</svg>
