<?xml version="1.0" encoding="utf-8"?>
<!-- Generator: Adobe Illustrator 26.3.0, SVG Export Plug-In . SVG Version: 6.00 Build 0)  -->
<svg version="1.1" id="Layer_1" xmlns="http://www.w3.org/2000/svg" xmlns:xlink="http://www.w3.org/1999/xlink" x="0px" y="0px"
	 viewBox="0 0 468.48 166.4" style="enable-background:new 0 0 468.48 166.4;" xml:space="preserve">
<style type="text/css">
	.st0{display:none;fill:#7BC46B;}
	.st1{fill:#7BC46B;}
</style>
<g>
	
		<rect x="-2470.09" y="33.61" transform="matrix(-0.9974 0.0721 -0.0721 -0.9974 -4886.4678 244.8677)" class="st0" width="44.88" height="1.23"/>
	
		<ellipse transform="matrix(0.9974 -0.0721 0.0721 0.9974 -8.6571 -174.7282)" class="st0" cx="-2424.23" cy="32.53" rx="1.33" ry="1.33"/>
	<g>
		
			<rect x="-2449.03" y="27.38" transform="matrix(-0.9974 0.0721 -0.0721 -0.9974 -4861.5142 231.5022)" class="st0" width="28.19" height="1.23"/>
		<g>
			
				<ellipse transform="matrix(0.9974 -0.0721 0.0721 0.9974 -8.2388 -174.4182)" class="st0" cx="-2419.73" cy="26.89" rx="1.33" ry="1.33"/>
		</g>
	</g>
</g>
<rect x="-1103.24" y="-657.96" class="st0" width="55.01" height="1.51"/>
<circle class="st0" cx="-1104.52" cy="-657.2" r="1.64"/>
<g>
	<rect x="-1109.11" y="-651.46" class="st0" width="34.56" height="1.51"/>
	<g>
		<circle class="st0" cx="-1110.52" cy="-650.71" r="1.64"/>
	</g>
</g>
<path class="st1" d="M0,166.4L0,0c0,0,26.08,135.48,433.99,163.76l34.47,2.62h0.02v0.02H0z"/>
</svg>
