<?xml version="1.0" encoding="utf-8"?>
<!-- Generator: Adobe Illustrator 26.3.0, SVG Export Plug-In . SVG Version: 6.00 Build 0)  -->
<svg version="1.1" id="Layer_1" xmlns="http://www.w3.org/2000/svg" xmlns:xlink="http://www.w3.org/1999/xlink" x="0px" y="0px"
	 viewBox="0 0 468.48 166.4" style="enable-background:new 0 0 468.48 166.4;" xml:space="preserve">
<style type="text/css">
	.st0{display:none;fill:#7BC46B;}
	.st1{fill:#7BC46B;}
</style>
<g>
	
		<rect x="-2075.07" y="465.86" transform="matrix(-0.9974 0.0721 -0.0721 -0.9974 -4066.282 1079.7637)" class="st0" width="44.88" height="1.23"/>
	
		<ellipse transform="matrix(0.9974 -0.0721 0.0721 0.9974 -38.7988 -145.1176)" class="st0" cx="-2029.21" cy="464.79" rx="1.33" ry="1.33"/>
	<g>
		
			<rect x="-2054.01" y="459.63" transform="matrix(-0.9974 0.0721 -0.0721 -0.9974 -4041.3281 1066.3979)" class="st0" width="28.19" height="1.23"/>
		<g>
			
				<ellipse transform="matrix(0.9974 -0.0721 0.0721 0.9974 -38.3805 -144.8076)" class="st0" cx="-2024.71" cy="459.15" rx="1.33" ry="1.33"/>
		</g>
	</g>
</g>
<rect x="-708.22" y="-225.7" class="st0" width="55.01" height="1.51"/>
<circle class="st0" cx="-709.49" cy="-224.95" r="1.64"/>
<g>
	<rect x="-714.09" y="-219.21" class="st0" width="34.56" height="1.51"/>
	<g>
		<circle class="st0" cx="-715.5" cy="-218.45" r="1.64"/>
	</g>
</g>
<g>
	<g>
		<g>
			<path class="st1" d="M468.48,0v166.4c0,0-26.08-135.48-433.99-163.76L0.02,0.02H0V0H468.48z"/>
		</g>
	</g>
</g>
</svg>
