<svg width="96" height="96" viewBox="0 0 96 96" fill="none" xmlns="http://www.w3.org/2000/svg">
<g clip-path="url(#clip0_743_4703)">
<path d="M63.2609 34.8525L59.0643 34.7934L59.2248 23.398C59.2228 21.3965 58.8257 19.4149 58.056 17.5665C57.2863 15.718 56.1592 14.0389 54.7389 12.625C53.3187 11.2111 51.6332 10.09 49.7786 9.32587C47.924 8.56171 45.9367 8.1694 43.9301 8.17134C41.9235 8.17328 39.9369 8.56943 38.0838 9.33718C36.2307 10.1049 34.5473 11.2292 33.1299 12.6459C31.7124 14.0626 30.5885 15.7438 29.8224 17.5938C29.0563 19.4437 28.663 21.426 28.6649 23.4275L28.5052 34.8525L24.3086 34.7934L24.4644 23.398C24.5537 18.3018 26.647 13.4447 30.293 9.87363C33.939 6.30255 38.8457 4.3035 43.9555 4.30738C49.0654 4.31125 53.9691 6.31773 57.6096 9.89433C61.2501 13.4709 63.336 18.3312 63.4175 23.4275L63.2609 34.8525Z" fill="#005366"/>
<path d="M70.7541 33.2755H18.2334C14.7908 33.2755 12 36.0593 12 39.4932V81.1188C12 84.5527 14.7908 87.3365 18.2334 87.3365H70.7541C74.1967 87.3365 76.9875 84.5527 76.9875 81.1188V39.4932C76.9875 36.0593 74.1967 33.2755 70.7541 33.2755Z" fill="#41C946"/>
<g opacity="0.2">
<path d="M16.1598 77.4068C15.7382 77.3983 15.552 70.0086 15.7429 60.9036C15.9338 51.7987 16.4309 44.423 16.8525 44.4315C17.274 44.4401 17.4602 51.8282 17.2685 60.9355C17.0769 70.0428 16.5813 77.417 16.1598 77.4068Z" fill="#005366"/>
</g>
<g opacity="0.2">
<path d="M16.2107 84.732C15.7892 84.7382 15.4378 84.0185 15.4261 83.1263C15.4144 82.2341 15.7463 81.5051 16.1686 81.5004C16.5909 81.4957 16.9408 82.2139 16.9525 83.1069C16.9642 83.9999 16.6291 84.725 16.2107 84.732Z" fill="#00634B"/>
</g>
<g opacity="0.2">
<path d="M63.4206 37.6752C63.4206 37.8851 60.8236 38.0561 56.6293 38.1618C52.435 38.2675 46.6403 38.3094 40.2426 38.2605C37.0425 38.2364 33.9936 38.1921 31.2213 38.1322C28.4459 38.1004 25.9409 37.9037 23.9416 38.112C22.3559 38.2283 20.8257 38.7439 19.4941 39.6105C18.5645 40.247 18.1796 40.7817 18.0775 40.7095C18.0043 40.6714 18.2232 39.9999 19.1216 39.1496C20.4386 38.0048 22.0647 37.2727 23.7966 37.0449C24.954 36.8667 26.1232 36.7752 27.2943 36.7713L31.2346 36.7294C34.0077 36.7115 37.0565 36.7138 40.2566 36.7379C46.6544 36.7861 52.4475 36.9151 56.6402 37.0846C60.833 37.254 63.4221 37.4654 63.4206 37.6752Z" fill="#005366"/>
</g>
<path d="M45.2686 65.2467C47.8935 65.2467 50.0215 63.1241 50.0215 60.5057C50.0215 57.8874 47.8935 55.7648 45.2686 55.7648C42.6436 55.7648 40.5156 57.8874 40.5156 60.5057C40.5156 63.1241 42.6436 65.2467 45.2686 65.2467Z" fill="white"/>
<path d="M45.2682 64.6638C47.5704 64.6638 49.4367 62.8021 49.4367 60.5057C49.4367 58.2093 47.5704 56.3477 45.2682 56.3477C42.9659 56.3477 41.0996 58.2093 41.0996 60.5057C41.0996 62.8021 42.9659 64.6638 45.2682 64.6638Z" stroke="#005366" stroke-width="1.5"/>
<path d="M45.2689 65.2467H44.3184V70.9351H45.2689V65.2467Z" fill="white"/>
<path d="M44.8784 65.6353H44.707V70.5464H44.8784V65.6353Z" stroke="#005366"/>
<path d="M74.6508 91.9996C79.8147 91.9996 84.0009 87.824 84.0009 82.6732C84.0009 77.5223 79.8147 73.3467 74.6508 73.3467C69.4869 73.3467 65.3008 77.5223 65.3008 82.6732C65.3008 87.824 69.4869 91.9996 74.6508 91.9996Z" fill="white"/>
<path d="M74.6504 91.4167C79.4916 91.4167 83.4161 87.5021 83.4161 82.6731C83.4161 77.8442 79.4916 73.9296 74.6504 73.9296C69.8093 73.9296 65.8848 77.8442 65.8848 82.6731C65.8848 87.5021 69.8093 91.4167 74.6504 91.4167Z" stroke="#005366" stroke-width="1.5"/>
<path d="M73.7984 87.0774C73.6536 87.0785 73.5141 87.0227 73.4104 86.9219L70.4744 83.9981C70.3716 83.895 70.3141 83.7554 70.3145 83.6101C70.3148 83.4647 70.3731 83.3254 70.4764 83.2228C70.5797 83.1203 70.7197 83.0629 70.8654 83.0632C71.0112 83.0636 71.1508 83.1217 71.2536 83.2248L73.7781 85.7367L78.824 80.1097C78.872 80.056 78.93 80.0123 78.9949 79.981C79.0598 79.9497 79.1302 79.9315 79.2022 79.9273C79.2742 79.9232 79.3462 79.9332 79.4143 79.9568C79.4824 79.9804 79.5451 80.0172 79.5989 80.065C79.6527 80.1129 79.6966 80.1708 79.728 80.2355C79.7594 80.3002 79.7776 80.3705 79.7818 80.4422C79.786 80.514 79.7759 80.5859 79.7522 80.6538C79.7285 80.7217 79.6917 80.7843 79.6437 80.838L74.209 86.8971C74.1592 86.9526 74.0985 86.9975 74.0307 87.0289C73.963 87.0603 73.8895 87.0776 73.8148 87.0797L73.7984 87.0774Z" fill="#005366"/>
</g>
<defs>
<clipPath id="clip0_743_4703">
<rect width="72" height="88" fill="white" transform="translate(12 4)"/>
</clipPath>
</defs>
</svg>
