<svg width="18" height="10" viewBox="0 0 18 10" fill="none" xmlns="http://www.w3.org/2000/svg">
<path d="M12.8286 9.19069C12.7088 9.07021 12.6416 8.90723 12.6416 8.73735C12.6416 8.56747 12.7088 8.40449 12.8286 8.28401L15.7865 5.33247H0.643015C0.472471 5.33247 0.30891 5.26472 0.188318 5.14413C0.0677261 5.02354 -2.28882e-05 4.85998 -2.28882e-05 4.68943C-2.28882e-05 4.51889 0.0677261 4.35533 0.188318 4.23474C0.30891 4.11414 0.472471 4.0464 0.643015 4.0464H15.7672L12.8286 1.10772C12.7066 0.986631 12.6378 0.822064 12.6372 0.650219C12.6366 0.478374 12.7043 0.313328 12.8253 0.191389C12.9464 0.0694505 13.111 0.000606961 13.2828 3.99421e-06C13.4547 -0.000598972 13.6197 0.0670879 13.7417 0.188174L17.8314 4.28432C17.9394 4.39278 18 4.5396 18 4.69265C18 4.8457 17.9394 4.99252 17.8314 5.10098L13.7417 9.19069C13.6819 9.25096 13.6108 9.2988 13.5324 9.33145C13.4541 9.36409 13.37 9.3809 13.2851 9.3809C13.2002 9.3809 13.1162 9.36409 13.0378 9.33145C12.9595 9.2988 12.8883 9.25096 12.8286 9.19069Z" fill="#41C946"/>
</svg>
